M48
; DRILL file KiCad 10.0.0 date 2026-04-23T20:22:24
; FORMAT={-:-/ absolute / metric / decimal}
; #@! TF.CreationDate,2026-04-23T20:22:24-05:00
; #@! TF.GenerationSoftware,Kicad,Pcbnew,10.0.0
; #@! TF.FileFunction,Plated,1,2,PTH
FMAT,2
METRIC
; #@! TA.AperFunction,Plated,PTH,ViaDrill
T1C0.300
; #@! TA.AperFunction,Plated,PTH,ComponentDrill
T2C0.800
; #@! TA.AperFunction,Plated,PTH,ComponentDrill
T3C0.889
; #@! TA.AperFunction,Plated,PTH,ComponentDrill
T4C0.900
; #@! TA.AperFunction,Plated,PTH,ComponentDrill
T5C1.000
; #@! TA.AperFunction,Plated,PTH,ComponentDrill
T6C1.100
; #@! TA.AperFunction,Plated,PTH,ComponentDrill
T7C1.600
; #@! TA.AperFunction,Plated,PTH,ComponentDrill
T8C1.800
%
G90
G05
T1
X79.0Y-73.0
X79.0Y-75.0
X79.5Y-90.0
X79.5Y-93.5
X79.5Y-107.0
X81.0Y-65.0
X83.5Y-65.5
X87.5Y-124.5
X88.5Y-82.57
X88.5Y-122.5
X89.5Y-121.57
X89.5Y-124.5
X90.0Y-130.0
X90.5Y-132.0
X94.5Y-106.5
X96.0Y-101.5
X96.5Y-55.0
X98.0Y-54.0
X99.0Y-56.0
X102.0Y-58.0
X102.0Y-132.0
X107.0Y-66.5
X109.5Y-66.5
X110.5Y-75.5
X112.5Y-79.5
X113.5Y-74.5
X114.082Y-95.08
X114.5Y-84.0
X116.15Y-75.38
X116.157Y-95.08
X116.27Y-110.877
X116.5Y-91.0
X117.5Y-65.5
X117.5Y-90.0
X118.0Y-66.5
X118.0Y-79.5
X118.5Y-95.0
X119.584Y-92.0
X120.0Y-72.5
X120.0Y-75.0
X120.5Y-86.0
X120.5Y-90.0
X120.77Y-110.84
X121.5Y-65.0
X121.65Y-73.88
X122.0Y-84.0
X122.5Y-79.5
X122.5Y-85.5
X122.5Y-109.0
X122.5Y-110.5
X123.0Y-64.5
X124.0Y-80.5
X124.27Y-110.84
X124.5Y-79.0
X125.15Y-73.88
X125.37Y-75.396
X127.0Y-91.5
X127.5Y-84.0
X127.65Y-51.38
X129.15Y-56.342
X129.15Y-73.917
X129.5Y-103.0
X130.0Y-84.0
X131.0Y-123.5
X131.5Y-73.0
X131.5Y-75.5
X131.5Y-105.0
X132.0Y-65.5
X132.15Y-53.88
X132.5Y-73.5
X133.0Y-67.5
X134.0Y-64.5
X134.5Y-80.0
X136.0Y-89.0
X136.5Y-111.0
X137.0Y-118.5
X137.5Y-89.0
X138.0Y-121.5
X138.5Y-57.57
X139.0Y-59.5
X139.5Y-73.0
X139.5Y-89.5
X139.5Y-91.5
X140.5Y-67.5
X141.0Y-92.0
X141.5Y-56.5
X141.5Y-114.5
X142.0Y-97.5
X142.5Y-72.5
X142.5Y-111.0
X143.0Y-106.5
X143.5Y-57.645
X144.0Y-113.0
X144.0Y-115.0
X145.12Y-127.08
X145.208Y-77.798
X146.275Y-89.225
X148.12Y-128.08
X150.0Y-106.845
X152.0Y-112.0
X154.0Y-108.92
X156.5Y-78.0
X157.5Y-57.645
X157.5Y-117.0
X158.5Y-102.0
X158.5Y-105.0
X158.5Y-115.5
X159.0Y-74.5
X160.5Y-131.0
X161.0Y-79.5
X161.5Y-74.5
X161.5Y-87.5
X161.5Y-92.0
X162.675Y-118.405
X162.714Y-100.743
X162.717Y-123.089
X163.0Y-78.5
X163.5Y-91.0
X167.5Y-83.5
X167.5Y-131.0
X168.5Y-87.5
X169.5Y-85.5
X170.5Y-74.0
X172.5Y-74.0
X173.647Y-66.31
X174.69Y-111.15
X176.52Y-103.98
X176.69Y-92.65
X177.0Y-124.0
X177.5Y-72.5
X178.5Y-68.5
X179.0Y-123.0
X183.0Y-54.0
X183.0Y-112.5
X183.5Y-53.0
X183.718Y-71.718
X183.945Y-65.267
X184.69Y-115.15
X185.5Y-54.0
X185.5Y-109.5
X186.5Y-50.0
X186.5Y-53.0
X187.0Y-75.0
X187.0Y-123.5
X187.5Y-62.0
X187.5Y-106.0
X188.0Y-51.5
X188.5Y-68.5
X189.0Y-61.0
X190.0Y-60.0
X190.5Y-81.5
X190.5Y-125.0
X191.0Y-68.5
X191.0Y-126.5
X191.5Y-62.0
X192.5Y-80.0
X192.5Y-109.5
X193.5Y-85.0
X193.653Y-105.65
X193.69Y-94.65
X194.0Y-117.5
X194.0Y-126.0
X194.425Y-120.0
X194.5Y-115.0
X195.5Y-84.0
X196.0Y-57.5
X197.0Y-89.5
X197.0Y-94.5
X197.075Y-50.537
X198.0Y-137.0
X198.5Y-55.0
X198.5Y-105.65
X199.0Y-87.5
X200.037Y-71.037
X203.0Y-109.0
X203.0Y-113.0
X204.0Y-135.5
X205.0Y-125.0
X206.0Y-133.0
X207.0Y-125.0
X211.5Y-80.537
X215.5Y-62.0
X215.5Y-67.462
X215.5Y-69.537
X215.5Y-75.0
X217.5Y-68.5
X217.5Y-73.037
X217.5Y-75.0
X218.0Y-78.0
X218.5Y-82.5
X219.0Y-47.537
X219.0Y-70.037
X220.0Y-56.037
X222.5Y-80.037
X223.5Y-58.537
X225.0Y-82.0
X227.5Y-75.037
X228.0Y-82.537
X229.0Y-64.537
T2
X111.23Y-98.27
X111.23Y-105.89
X113.77Y-98.27
X113.77Y-105.89
X116.31Y-98.27
X116.31Y-105.89
X116.61Y-61.26
X116.61Y-68.88
X118.85Y-98.27
X118.85Y-105.89
X119.15Y-61.26
X119.15Y-68.88
X119.92Y-51.07
X121.39Y-98.27
X121.39Y-105.89
X121.69Y-61.26
X121.69Y-68.88
X122.46Y-51.07
X123.93Y-98.27
X123.93Y-105.89
X124.23Y-61.26
X124.23Y-68.88
X125.0Y-51.07
X126.47Y-98.27
X126.47Y-105.89
X126.77Y-61.26
X126.77Y-68.88
X129.01Y-98.27
X129.01Y-105.89
X129.31Y-61.26
X129.31Y-68.88
X129.65Y-76.76
X129.65Y-79.3
X129.65Y-81.84
X130.08Y-116.08
X131.85Y-61.26
X131.85Y-68.88
X132.62Y-116.08
X134.39Y-61.26
X134.39Y-68.88
X134.81Y-126.58
X134.81Y-130.58
X135.16Y-116.08
X137.42Y-50.57
X139.5Y-101.38
X139.5Y-103.92
X139.5Y-106.46
X139.5Y-109.0
X139.5Y-111.54
X139.5Y-114.08
X139.5Y-116.62
X139.96Y-50.57
X142.43Y-126.58
X142.43Y-130.58
X142.5Y-50.57
X146.19Y-67.57
X146.5Y-48.03
X146.5Y-50.57
X146.5Y-53.11
X146.5Y-55.65
X146.5Y-58.19
X146.5Y-60.73
X146.5Y-63.27
X147.12Y-101.38
X147.12Y-103.92
X147.12Y-106.46
X147.12Y-109.0
X147.12Y-111.54
X147.12Y-114.08
X147.12Y-116.62
X150.5Y-114.61
X150.5Y-122.23
X153.81Y-67.57
X154.12Y-48.03
X154.12Y-50.57
X154.12Y-53.11
X154.12Y-55.65
X154.12Y-58.19
X154.12Y-60.73
X154.12Y-63.27
X170.23Y-106.15
X172.11Y-70.19
X172.11Y-77.81
X172.77Y-106.15
X174.65Y-70.19
X174.65Y-77.81
X175.31Y-106.15
X177.19Y-70.19
X177.19Y-77.81
X178.3Y-55.81
X178.3Y-59.81
X179.73Y-70.19
X179.73Y-77.81
X182.27Y-70.19
X182.27Y-77.81
X183.19Y-93.11
X183.19Y-95.65
X183.19Y-98.19
X183.19Y-100.73
X183.19Y-103.27
X183.19Y-105.81
X183.19Y-108.35
X183.19Y-110.89
X184.5Y-122.69
X184.5Y-130.31
X184.81Y-70.19
X184.81Y-77.81
X185.92Y-55.81
X185.92Y-59.81
X187.35Y-70.19
X187.35Y-77.81
X188.8Y-123.0
X188.8Y-130.62
X189.89Y-70.19
X189.89Y-77.81
X190.81Y-93.11
X190.81Y-95.65
X190.81Y-98.19
X190.81Y-100.73
X190.81Y-103.27
X190.81Y-105.81
X190.81Y-108.35
X190.81Y-110.89
X191.34Y-123.0
X191.34Y-130.62
X193.88Y-123.0
X193.88Y-130.62
X196.42Y-123.0
X196.42Y-130.62
X198.96Y-123.0
X198.96Y-130.62
X199.955Y-50.129
X199.955Y-57.749
X201.0Y-96.42
X201.0Y-98.96
X201.0Y-101.5
X201.5Y-113.92
X201.5Y-116.46
X201.5Y-119.0
X201.5Y-123.0
X201.5Y-130.62
X202.495Y-50.129
X202.495Y-57.749
X204.04Y-123.0
X204.04Y-130.62
X205.0Y-62.337
X205.0Y-64.877
X205.0Y-67.418
X205.0Y-69.957
X205.0Y-72.498
X205.0Y-75.037
X205.0Y-77.578
X212.62Y-62.337
X212.62Y-64.877
X212.62Y-67.418
X212.62Y-69.957
X212.62Y-72.498
X212.62Y-75.037
X212.62Y-77.578
X212.655Y-50.129
X212.655Y-57.749
X215.195Y-50.129
X215.195Y-57.749
X219.535Y-62.439
X221.77Y-67.629
X221.77Y-70.169
X221.77Y-72.709
X221.77Y-75.249
X222.075Y-62.439
X224.615Y-62.439
X225.23Y-117.0
X225.23Y-125.5
X225.32Y-133.375
X227.23Y-117.0
X227.23Y-125.5
X227.32Y-133.375
X229.39Y-67.629
X229.39Y-70.169
X229.39Y-72.709
X229.39Y-75.249
T3
X82.0Y-128.57
X82.0Y-131.11
X82.0Y-133.65
T4
X213.778Y-133.375
X213.858Y-117.375
X213.903Y-125.375
X216.318Y-133.375
X216.398Y-117.375
X216.443Y-125.375
X232.23Y-116.765
X232.23Y-119.305
X232.23Y-121.845
X232.23Y-124.385
X232.23Y-126.925
X232.23Y-129.465
X232.23Y-132.005
X232.23Y-134.545
X234.77Y-116.765
X234.77Y-119.305
X234.77Y-121.845
X234.77Y-124.385
X234.77Y-126.925
X234.77Y-129.465
X234.77Y-132.005
X234.77Y-134.545
T5
X79.494Y-120.49
X79.5Y-51.57
X79.5Y-68.07
X79.5Y-84.99
X79.5Y-103.57
X81.994Y-120.49
X82.0Y-51.57
X82.0Y-68.07
X82.0Y-84.99
X82.0Y-103.57
X84.494Y-120.49
X84.5Y-51.57
X84.5Y-68.07
X84.5Y-84.99
X84.5Y-103.57
X97.0Y-68.07
X97.0Y-84.99
X97.0Y-103.57
X97.0Y-120.49
X99.5Y-68.07
X99.5Y-84.99
X99.5Y-103.57
X99.5Y-120.49
X102.0Y-68.07
X102.0Y-84.99
X102.0Y-103.57
X102.0Y-120.49
T6
X112.96Y-81.52
X115.5Y-81.52
X116.46Y-88.02
X118.04Y-81.52
X119.0Y-88.02
X121.54Y-88.02
X124.07Y-116.54
X124.07Y-119.08
X124.07Y-121.62
X143.05Y-74.03
X143.05Y-76.57
X143.05Y-79.11
X144.5Y-85.57
X144.5Y-88.11
X144.5Y-90.65
X151.0Y-73.99
X151.0Y-76.53
X151.0Y-79.07
X152.95Y-85.53
X152.95Y-88.07
X152.95Y-90.61
X158.92Y-68.52
X159.46Y-76.52
X159.5Y-83.07
X161.42Y-121.0
X161.46Y-68.52
X161.46Y-129.45
X162.0Y-76.52
X162.04Y-83.07
X163.96Y-121.0
X164.0Y-68.52
X164.0Y-129.45
X164.05Y-92.96
X164.05Y-95.5
X164.05Y-98.04
X164.54Y-76.52
X164.58Y-83.07
X166.5Y-121.0
X166.54Y-129.45
X169.0Y-136.0
X169.0Y-138.54
X169.0Y-141.08
X170.55Y-89.46
X170.55Y-92.0
X170.55Y-94.54
X172.96Y-119.55
X173.0Y-127.5
X175.5Y-119.55
X175.54Y-127.5
X175.55Y-135.96
X175.55Y-138.5
X175.55Y-141.04
X178.04Y-119.55
X178.08Y-127.5
X183.55Y-135.42
X183.55Y-137.96
X183.55Y-140.5
T7
X63.5Y-40.5
X63.5Y-48.8
X63.5Y-51.9
X63.5Y-57.0
X63.5Y-65.3
X63.5Y-68.4
X63.5Y-73.92
X63.5Y-82.22
X63.5Y-85.32
X63.5Y-92.5
X63.5Y-100.8
X63.5Y-103.9
X63.5Y-109.42
X63.5Y-117.72
X63.5Y-120.82
X63.5Y-126.15
X63.5Y-134.45
X63.5Y-137.55
X99.5Y-40.5
X99.5Y-48.8
X99.5Y-51.9
X99.5Y-126.15
X99.5Y-134.45
X99.5Y-137.55
T8
X77.194Y-112.99
X77.2Y-44.07
X77.2Y-60.57
X77.2Y-77.49
X77.2Y-96.07
X86.794Y-112.99
X86.8Y-44.07
X86.8Y-60.57
X86.8Y-77.49
X86.8Y-96.07
X94.7Y-60.57
X94.7Y-77.49
X94.7Y-96.07
X94.7Y-112.99
X104.3Y-60.57
X104.3Y-77.49
X104.3Y-96.07
X104.3Y-112.99
M30
