%TF.GenerationSoftware,KiCad,Pcbnew,10.0.0*%
%TF.CreationDate,2026-04-23T14:30:47-05:00*%
%TF.ProjectId,modularFeedbackProcessor,6d6f6475-6c61-4724-9665-65646261636b,rev?*%
%TF.SameCoordinates,Original*%
%TF.FileFunction,Copper,L1,Top*%
%TF.FilePolarity,Positive*%
%FSLAX46Y46*%
G04 Gerber Fmt 4.6, Leading zero omitted, Abs format (unit mm)*
G04 Created by KiCad (PCBNEW 10.0.0) date 2026-04-23 14:30:47*
%MOMM*%
%LPD*%
G01*
G04 APERTURE LIST*
G04 Aperture macros list*
%AMRoundRect*
0 Rectangle with rounded corners*
0 $1 Rounding radius*
0 $2 $3 $4 $5 $6 $7 $8 $9 X,Y pos of 4 corners*
0 Add a 4 corners polygon primitive as box body*
4,1,4,$2,$3,$4,$5,$6,$7,$8,$9,$2,$3,0*
0 Add four circle primitives for the rounded corners*
1,1,$1+$1,$2,$3*
1,1,$1+$1,$4,$5*
1,1,$1+$1,$6,$7*
1,1,$1+$1,$8,$9*
0 Add four rect primitives between the rounded corners*
20,1,$1+$1,$2,$3,$4,$5,0*
20,1,$1+$1,$4,$5,$6,$7,0*
20,1,$1+$1,$6,$7,$8,$9,0*
20,1,$1+$1,$8,$9,$2,$3,0*%
G04 Aperture macros list end*
%TA.AperFunction,SMDPad,CuDef*%
%ADD10RoundRect,0.250000X0.350000X0.450000X-0.350000X0.450000X-0.350000X-0.450000X0.350000X-0.450000X0*%
%TD*%
%TA.AperFunction,SMDPad,CuDef*%
%ADD11RoundRect,0.250000X-0.350000X-0.450000X0.350000X-0.450000X0.350000X0.450000X-0.350000X0.450000X0*%
%TD*%
%TA.AperFunction,SMDPad,CuDef*%
%ADD12RoundRect,0.250000X-0.337500X-0.475000X0.337500X-0.475000X0.337500X0.475000X-0.337500X0.475000X0*%
%TD*%
%TA.AperFunction,ComponentPad*%
%ADD13R,2.000000X1.905000*%
%TD*%
%TA.AperFunction,ComponentPad*%
%ADD14O,2.000000X1.905000*%
%TD*%
%TA.AperFunction,SMDPad,CuDef*%
%ADD15R,1.270000X1.524000*%
%TD*%
%TA.AperFunction,ComponentPad*%
%ADD16O,2.400000X2.000000*%
%TD*%
%TA.AperFunction,SMDPad,CuDef*%
%ADD17RoundRect,0.250000X-0.450000X0.350000X-0.450000X-0.350000X0.450000X-0.350000X0.450000X0.350000X0*%
%TD*%
%TA.AperFunction,SMDPad,CuDef*%
%ADD18RoundRect,0.250000X0.475000X-0.337500X0.475000X0.337500X-0.475000X0.337500X-0.475000X-0.337500X0*%
%TD*%
%TA.AperFunction,ComponentPad*%
%ADD19RoundRect,0.250000X-0.550000X0.550000X-0.550000X-0.550000X0.550000X-0.550000X0.550000X0.550000X0*%
%TD*%
%TA.AperFunction,ComponentPad*%
%ADD20C,1.600000*%
%TD*%
%TA.AperFunction,ComponentPad*%
%ADD21C,2.600000*%
%TD*%
%TA.AperFunction,ComponentPad*%
%ADD22O,1.900000X1.500000*%
%TD*%
%TA.AperFunction,ComponentPad*%
%ADD23RoundRect,0.250000X-0.550000X0.950000X-0.550000X-0.950000X0.550000X-0.950000X0.550000X0.950000X0*%
%TD*%
%TA.AperFunction,ComponentPad*%
%ADD24O,1.600000X2.400000*%
%TD*%
%TA.AperFunction,SMDPad,CuDef*%
%ADD25RoundRect,0.250000X0.450000X-0.350000X0.450000X0.350000X-0.450000X0.350000X-0.450000X-0.350000X0*%
%TD*%
%TA.AperFunction,ComponentPad*%
%ADD26RoundRect,0.250000X0.550000X-0.950000X0.550000X0.950000X-0.550000X0.950000X-0.550000X-0.950000X0*%
%TD*%
%TA.AperFunction,SMDPad,CuDef*%
%ADD27RoundRect,0.250000X0.337500X0.475000X-0.337500X0.475000X-0.337500X-0.475000X0.337500X-0.475000X0*%
%TD*%
%TA.AperFunction,SMDPad,CuDef*%
%ADD28RoundRect,0.250000X-0.475000X0.337500X-0.475000X-0.337500X0.475000X-0.337500X0.475000X0.337500X0*%
%TD*%
%TA.AperFunction,ComponentPad*%
%ADD29R,1.905000X2.000000*%
%TD*%
%TA.AperFunction,ComponentPad*%
%ADD30O,1.905000X2.000000*%
%TD*%
%TA.AperFunction,ComponentPad*%
%ADD31RoundRect,0.250000X0.550000X0.550000X-0.550000X0.550000X-0.550000X-0.550000X0.550000X-0.550000X0*%
%TD*%
%TA.AperFunction,ComponentPad*%
%ADD32R,1.800000X1.800000*%
%TD*%
%TA.AperFunction,ComponentPad*%
%ADD33C,1.800000*%
%TD*%
%TA.AperFunction,SMDPad,CuDef*%
%ADD34R,1.524000X1.270000*%
%TD*%
%TA.AperFunction,ComponentPad*%
%ADD35C,1.440000*%
%TD*%
%TA.AperFunction,ComponentPad*%
%ADD36RoundRect,0.250000X-0.550000X-0.550000X0.550000X-0.550000X0.550000X0.550000X-0.550000X0.550000X0*%
%TD*%
%TA.AperFunction,ComponentPad*%
%ADD37RoundRect,0.250000X-0.950000X-0.550000X0.950000X-0.550000X0.950000X0.550000X-0.950000X0.550000X0*%
%TD*%
%TA.AperFunction,ComponentPad*%
%ADD38O,2.400000X1.600000*%
%TD*%
%TA.AperFunction,ComponentPad*%
%ADD39C,1.651000*%
%TD*%
%TA.AperFunction,ComponentPad*%
%ADD40RoundRect,0.250000X0.950000X0.550000X-0.950000X0.550000X-0.950000X-0.550000X0.950000X-0.550000X0*%
%TD*%
%TA.AperFunction,ViaPad*%
%ADD41C,0.500000*%
%TD*%
%TA.AperFunction,Conductor*%
%ADD42C,0.200000*%
%TD*%
%TA.AperFunction,Conductor*%
%ADD43C,0.300000*%
%TD*%
G04 APERTURE END LIST*
D10*
%TO.P,R22,1*%
%TO.N,GND*%
X221500000Y-80037500D03*
%TO.P,R22,2*%
%TO.N,Net-(U6-T)*%
X219500000Y-80037500D03*
%TD*%
%TO.P,R61,1*%
%TO.N,Net-(C20-Pad2)*%
X134150000Y-53880000D03*
%TO.P,R61,2*%
%TO.N,Net-(U7A--)*%
X132150000Y-53880000D03*
%TD*%
D11*
%TO.P,R64,1*%
%TO.N,-12V*%
X189190000Y-117150000D03*
%TO.P,R64,2*%
%TO.N,Net-(R64-Pad2)*%
X191190000Y-117150000D03*
%TD*%
D12*
%TO.P,C15,1*%
%TO.N,+5V*%
X171572500Y-66310000D03*
%TO.P,C15,2*%
%TO.N,GND*%
X173647500Y-66310000D03*
%TD*%
D13*
%TO.P,Q5,1,G_1*%
%TO.N,Net-(Q3-D)*%
X144500000Y-90650000D03*
D14*
%TO.P,Q5,2,D_2*%
X144500000Y-88110000D03*
%TO.P,Q5,3,S_3*%
%TO.N,-12V*%
X144500000Y-85570000D03*
%TD*%
D15*
%TO.P,TP19,1,1_1*%
%TO.N,/Mixer2/V_{in2}*%
X164000000Y-103500000D03*
%TD*%
D16*
%TO.P,J5,1,T_1*%
%TO.N,Net-(J5-T)*%
X63500000Y-57000000D03*
%TO.P,J5,2,TN_2*%
%TO.N,GND*%
X63500000Y-65300000D03*
%TO.P,J5,3,S_3*%
X63500000Y-68400000D03*
%TD*%
D13*
%TO.P,Q1,1,G_1*%
%TO.N,Net-(D4-A)*%
X124070000Y-121620000D03*
D14*
%TO.P,Q1,2,D_2*%
%TO.N,Net-(Q1-D)*%
X124070000Y-119080000D03*
%TO.P,Q1,3,S_3*%
%TO.N,Net-(Q1-S)*%
X124070000Y-116540000D03*
%TD*%
D17*
%TO.P,R16,1*%
%TO.N,+12V*%
X127770000Y-108840000D03*
%TO.P,R16,2*%
%TO.N,Net-(U3A-DIODE_BIAS)*%
X127770000Y-110840000D03*
%TD*%
D18*
%TO.P,C23,1*%
%TO.N,GND*%
X157500000Y-57645000D03*
%TO.P,C23,2*%
%TO.N,-12V*%
X157500000Y-55570000D03*
%TD*%
D10*
%TO.P,R7,1*%
%TO.N,-12V*%
X137000000Y-104420000D03*
%TO.P,R7,2*%
%TO.N,Net-(U1A--)*%
X135000000Y-104420000D03*
%TD*%
D17*
%TO.P,R80,1*%
%TO.N,Net-(Q19-D)*%
X183690000Y-88150000D03*
%TO.P,R80,2*%
%TO.N,/Mixer2/Iout1*%
X183690000Y-90150000D03*
%TD*%
D19*
%TO.P,D12,1,K_1*%
%TO.N,/Mixer2/V_{ctrl}*%
X184500000Y-122690000D03*
D20*
%TO.P,D12,2,A_2*%
%TO.N,Net-(D12-A)*%
X184500000Y-130310000D03*
%TD*%
D13*
%TO.P,Q9,1,G_1*%
%TO.N,Net-(Q3-D)*%
X152950000Y-90610000D03*
D14*
%TO.P,Q9,2,D_2*%
%TO.N,Net-(Q6-D)*%
X152950000Y-88070000D03*
%TO.P,Q9,3,S_3*%
%TO.N,-12V*%
X152950000Y-85530000D03*
%TD*%
D10*
%TO.P,R40,1*%
%TO.N,Net-(R40-Pad1)*%
X94000000Y-121570000D03*
%TO.P,R40,2*%
%TO.N,/Mixer2/V_{ctrl}*%
X92000000Y-121570000D03*
%TD*%
D21*
%TO.P,RV9,*%
%TO.N,*%
X94700000Y-77490000D03*
X104300000Y-77490000D03*
D22*
%TO.P,RV9,1,1_1*%
%TO.N,Net-(J6-T)*%
X97000000Y-84990000D03*
%TO.P,RV9,2,2_2*%
%TO.N,Net-(R34-Pad2)*%
X99500000Y-84990000D03*
%TO.P,RV9,3,3_3*%
%TO.N,GND*%
X102000000Y-84990000D03*
%TD*%
D10*
%TO.P,R69,1*%
%TO.N,Net-(U10A-DIODE_BIAS)*%
X195690000Y-101650000D03*
%TO.P,R69,2*%
%TO.N,+12V*%
X193690000Y-101650000D03*
%TD*%
D11*
%TO.P,R72,1*%
%TO.N,Net-(U10A--)*%
X198690000Y-104150000D03*
%TO.P,R72,2*%
%TO.N,GND*%
X200690000Y-104150000D03*
%TD*%
D17*
%TO.P,R49,1*%
%TO.N,Net-(U8A-DIODE_BIAS)*%
X125150000Y-56380000D03*
%TO.P,R49,2*%
%TO.N,+12V*%
X125150000Y-58380000D03*
%TD*%
D23*
%TO.P,U3,1*%
%TO.N,GND*%
X129010000Y-98270000D03*
D24*
%TO.P,U3,2,DIODE_BIAS_2*%
X126470000Y-98270000D03*
%TO.P,U3,3,+_3*%
X123930000Y-98270000D03*
%TO.P,U3,4,-_4*%
X121390000Y-98270000D03*
%TO.P,U3,5*%
%TO.N,unconnected-(U3-Pad5)*%
X118850000Y-98270000D03*
%TO.P,U3,6,V-_6*%
%TO.N,-12V*%
X116310000Y-98270000D03*
%TO.P,U3,7*%
%TO.N,GND*%
X113770000Y-98270000D03*
%TO.P,U3,8*%
%TO.N,unconnected-(U3-Pad8)*%
X111230000Y-98270000D03*
%TO.P,U3,9*%
%TO.N,unconnected-(U3-Pad9)*%
X111230000Y-105890000D03*
%TO.P,U3,10*%
%TO.N,GND*%
X113770000Y-105890000D03*
%TO.P,U3,11,V+_11*%
%TO.N,+12V*%
X116310000Y-105890000D03*
%TO.P,U3,12*%
%TO.N,Net-(U1A--)*%
X118850000Y-105890000D03*
%TO.P,U3,13,-_13*%
%TO.N,Net-(U3A--)*%
X121390000Y-105890000D03*
%TO.P,U3,14,+_14*%
%TO.N,Net-(U3A-+)*%
X123930000Y-105890000D03*
%TO.P,U3,15,DIODE_BIAS_15*%
%TO.N,Net-(U3A-DIODE_BIAS)*%
X126470000Y-105890000D03*
%TO.P,U3,16*%
%TO.N,Net-(R11-Pad1)*%
X129010000Y-105890000D03*
%TD*%
D25*
%TO.P,R81,1*%
%TO.N,Net-(C29-Pad2)*%
X198190000Y-110650000D03*
%TO.P,R81,2*%
%TO.N,Net-(U9A--)*%
X198190000Y-108650000D03*
%TD*%
D16*
%TO.P,J2,1,T_1*%
%TO.N,Net-(J2-T)*%
X63500000Y-92500000D03*
%TO.P,J2,2,TN_2*%
%TO.N,GND*%
X63500000Y-100800000D03*
%TO.P,J2,3,S_3*%
X63500000Y-103900000D03*
%TD*%
D25*
%TO.P,R78,1*%
%TO.N,Net-(C30-Pad2)*%
X174690000Y-113150000D03*
%TO.P,R78,2*%
%TO.N,GND*%
X174690000Y-111150000D03*
%TD*%
D11*
%TO.P,R29,1*%
%TO.N,Net-(D7-A)*%
X134620000Y-122080000D03*
%TO.P,R29,2*%
%TO.N,Net-(SW1-B)*%
X136620000Y-122080000D03*
%TD*%
D26*
%TO.P,U8,1*%
%TO.N,/Mixer1/Iout1*%
X116610000Y-68880000D03*
D24*
%TO.P,U8,2,DIODE_BIAS_2*%
%TO.N,Net-(U8C-DIODE_BIAS)*%
X119150000Y-68880000D03*
%TO.P,U8,3,+_3*%
%TO.N,Net-(U8C-+)*%
X121690000Y-68880000D03*
%TO.P,U8,4,-_4*%
%TO.N,Net-(U8C--)*%
X124230000Y-68880000D03*
%TO.P,U8,5*%
%TO.N,Net-(RV14-Pad1)*%
X126770000Y-68880000D03*
%TO.P,U8,6,V-_6*%
%TO.N,-12V*%
X129310000Y-68880000D03*
%TO.P,U8,7*%
%TO.N,Net-(RV14-Pad1)*%
X131850000Y-68880000D03*
%TO.P,U8,8*%
%TO.N,Net-(C21-Pad1)*%
X134390000Y-68880000D03*
%TO.P,U8,9*%
%TO.N,Net-(C20-Pad1)*%
X134390000Y-61260000D03*
%TO.P,U8,10*%
%TO.N,Net-(RV13-Pad1)*%
X131850000Y-61260000D03*
%TO.P,U8,11,V+_11*%
%TO.N,+12V*%
X129310000Y-61260000D03*
%TO.P,U8,12*%
%TO.N,Net-(RV13-Pad1)*%
X126770000Y-61260000D03*
%TO.P,U8,13,-_13*%
%TO.N,Net-(U8A--)*%
X124230000Y-61260000D03*
%TO.P,U8,14,+_14*%
%TO.N,Net-(U8A-+)*%
X121690000Y-61260000D03*
%TO.P,U8,15,DIODE_BIAS_15*%
%TO.N,Net-(U8A-DIODE_BIAS)*%
X119150000Y-61260000D03*
%TO.P,U8,16*%
%TO.N,/Mixer1/Iout2*%
X116610000Y-61260000D03*
%TD*%
D17*
%TO.P,R45,1*%
%TO.N,Net-(C18-Pad2)*%
X121650000Y-56380000D03*
%TO.P,R45,2*%
%TO.N,Net-(U8A-+)*%
X121650000Y-58380000D03*
%TD*%
D21*
%TO.P,RV3,*%
%TO.N,*%
X77200000Y-96070000D03*
X86800000Y-96070000D03*
D22*
%TO.P,RV3,1,1_1*%
%TO.N,+5V*%
X79500000Y-103570000D03*
%TO.P,RV3,2,2_2*%
%TO.N,Net-(R5-Pad1)*%
X82000000Y-103570000D03*
%TO.P,RV3,3,3_3*%
%TO.N,GND*%
X84500000Y-103570000D03*
%TD*%
D21*
%TO.P,RV2,*%
%TO.N,*%
X77200000Y-44070000D03*
X86800000Y-44070000D03*
D22*
%TO.P,RV2,1,1_1*%
%TO.N,/Mixer1/V_{in1}*%
X79500000Y-51570000D03*
%TO.P,RV2,2,2_2*%
%TO.N,Net-(R6-Pad1)*%
X82000000Y-51570000D03*
%TO.P,RV2,3,3_3*%
%TO.N,GND*%
X84500000Y-51570000D03*
%TD*%
D27*
%TO.P,C28,1*%
%TO.N,/Mixer2/V_{in2}*%
X180265000Y-101650000D03*
%TO.P,C28,2*%
%TO.N,Net-(C28-Pad2)*%
X178190000Y-101650000D03*
%TD*%
D18*
%TO.P,C17,1*%
%TO.N,Net-(D11-A)*%
X157500000Y-63145000D03*
%TO.P,C17,2*%
%TO.N,/Mixer1/V_{ctrl}*%
X157500000Y-61070000D03*
%TD*%
D16*
%TO.P,J10,1,T_1*%
%TO.N,Net-(J10-T)*%
X99500000Y-40500000D03*
%TO.P,J10,2,TN_2*%
%TO.N,GND*%
X99500000Y-48800000D03*
%TO.P,J10,3,S_3*%
X99500000Y-51900000D03*
%TD*%
D28*
%TO.P,C5,1*%
%TO.N,+12V*%
X116270000Y-108802500D03*
%TO.P,C5,2*%
%TO.N,GND*%
X116270000Y-110877500D03*
%TD*%
D29*
%TO.P,Q2,1,G_1*%
%TO.N,Net-(Q2-G)*%
X158920000Y-68520000D03*
D30*
%TO.P,Q2,2,D_2*%
%TO.N,Net-(Q2-D)*%
X161460000Y-68520000D03*
%TO.P,Q2,3,S_3*%
%TO.N,Net-(Q2-S)*%
X164000000Y-68520000D03*
%TD*%
D10*
%TO.P,R4,1*%
%TO.N,-12V*%
X221313416Y-133374633D03*
%TO.P,R4,2*%
%TO.N,Net-(D3-K)*%
X219313416Y-133374633D03*
%TD*%
D31*
%TO.P,C13,1*%
%TO.N,+5V*%
X227230000Y-117000000D03*
D20*
%TO.P,C13,2*%
%TO.N,GND*%
X225230000Y-117000000D03*
%TD*%
D10*
%TO.P,R58,1*%
%TO.N,Net-(C21-Pad2)*%
X136650000Y-77380000D03*
%TO.P,R58,2*%
%TO.N,GND*%
X134650000Y-77380000D03*
%TD*%
D15*
%TO.P,TP23,1,1_1*%
%TO.N,/Mixer2/V_{out}*%
X207500000Y-123000000D03*
%TD*%
D31*
%TO.P,D7,1,K_1*%
%TO.N,Net-(D7-K)*%
X142430000Y-126580000D03*
D20*
%TO.P,D7,2,A_2*%
%TO.N,Net-(D7-A)*%
X134810000Y-126580000D03*
%TD*%
D32*
%TO.P,D1,1,K_1*%
%TO.N,GND*%
X213903192Y-125374633D03*
D33*
%TO.P,D1,2,A_2*%
%TO.N,Net-(D1-A)*%
X216443192Y-125374633D03*
%TD*%
D10*
%TO.P,R43,1*%
%TO.N,Net-(R42-Pad2)*%
X107500000Y-40500000D03*
%TO.P,R43,2*%
%TO.N,Net-(J10-T)*%
X105500000Y-40500000D03*
%TD*%
D16*
%TO.P,J7,1,T_1*%
%TO.N,/Mixer2/V_{in2}*%
X63500000Y-126150000D03*
%TO.P,J7,2,TN_2*%
%TO.N,GND*%
X63500000Y-134450000D03*
%TO.P,J7,3,S_3*%
X63500000Y-137550000D03*
%TD*%
D15*
%TO.P,TP21,1,1_1*%
%TO.N,Net-(C29-Pad2)*%
X205500000Y-110000000D03*
%TD*%
D21*
%TO.P,RV1,*%
%TO.N,*%
X94700000Y-96070000D03*
X104300000Y-96070000D03*
D22*
%TO.P,RV1,1,1_1*%
%TO.N,Net-(J2-T)*%
X97000000Y-103570000D03*
%TO.P,RV1,2,2_2*%
%TO.N,Net-(R3-Pad1)*%
X99500000Y-103570000D03*
%TO.P,RV1,3,3_3*%
%TO.N,GND*%
X102000000Y-103570000D03*
%TD*%
D10*
%TO.P,R50,1*%
%TO.N,Net-(U8C-DIODE_BIAS)*%
X118150000Y-71880000D03*
%TO.P,R50,2*%
%TO.N,+12V*%
X116150000Y-71880000D03*
%TD*%
%TO.P,R38,1*%
%TO.N,/Mixer1/V_{in2}*%
X205500000Y-80537500D03*
%TO.P,R38,2*%
%TO.N,Net-(J8-T)*%
X203500000Y-80537500D03*
%TD*%
D12*
%TO.P,C4,1*%
%TO.N,GND*%
X200037133Y-69439084D03*
%TO.P,C4,2*%
%TO.N,-12V*%
X202112133Y-69439084D03*
%TD*%
D10*
%TO.P,R75,1*%
%TO.N,Net-(C29-Pad1)*%
X191190000Y-113650000D03*
%TO.P,R75,2*%
%TO.N,-12V*%
X189190000Y-113650000D03*
%TD*%
D21*
%TO.P,RV6,*%
%TO.N,*%
X77200000Y-77490000D03*
X86800000Y-77490000D03*
D22*
%TO.P,RV6,1,1_1*%
%TO.N,Net-(R31-Pad2)*%
X79500000Y-84990000D03*
%TO.P,RV6,2,2_2*%
%TO.N,Net-(R32-Pad2)*%
X82000000Y-84990000D03*
%TO.P,RV6,3,3_3*%
%TO.N,Net-(R35-Pad2)*%
X84500000Y-84990000D03*
%TD*%
D16*
%TO.P,J9,1,T_1*%
%TO.N,Net-(J9-T)*%
X63500000Y-109420000D03*
%TO.P,J9,2,TN_2*%
%TO.N,GND*%
X63500000Y-117720000D03*
%TO.P,J9,3,S_3*%
X63500000Y-120820000D03*
%TD*%
D12*
%TO.P,C34,1*%
%TO.N,GND*%
X178152500Y-105650000D03*
%TO.P,C34,2*%
%TO.N,-12V*%
X180227500Y-105650000D03*
%TD*%
D11*
%TO.P,R67,1*%
%TO.N,Net-(U10A-+)*%
X193690000Y-94650000D03*
%TO.P,R67,2*%
%TO.N,GND*%
X195690000Y-94650000D03*
%TD*%
D34*
%TO.P,TP6,1,1_1*%
%TO.N,Net-(U1B--)*%
X129620000Y-121080000D03*
%TD*%
D25*
%TO.P,R44,1*%
%TO.N,-12V*%
X140650000Y-62880000D03*
%TO.P,R44,2*%
%TO.N,Net-(R44-Pad2)*%
X140650000Y-60880000D03*
%TD*%
D34*
%TO.P,TP7,1,1_1*%
%TO.N,Net-(R21-Pad2)*%
X224500000Y-80037500D03*
%TD*%
D35*
%TO.P,RV15,1,1_1*%
%TO.N,Net-(R64-Pad2)*%
X201500000Y-113920000D03*
%TO.P,RV15,2,2_2*%
X201500000Y-116460000D03*
%TO.P,RV15,3,3_3*%
%TO.N,Net-(Q11-S)*%
X201500000Y-119000000D03*
%TD*%
D27*
%TO.P,C31,1*%
%TO.N,+12V*%
X196500000Y-120000000D03*
%TO.P,C31,2*%
%TO.N,GND*%
X194425000Y-120000000D03*
%TD*%
D21*
%TO.P,RV7,*%
%TO.N,*%
X94700000Y-60570000D03*
X104300000Y-60570000D03*
D22*
%TO.P,RV7,1,1_1*%
%TO.N,Net-(J5-T)*%
X97000000Y-68070000D03*
%TO.P,RV7,2,2_2*%
%TO.N,Net-(R37-Pad1)*%
X99500000Y-68070000D03*
%TO.P,RV7,3,3_3*%
%TO.N,GND*%
X102000000Y-68070000D03*
%TD*%
D11*
%TO.P,R36,1*%
%TO.N,Net-(R36-Pad1)*%
X87500000Y-69070000D03*
%TO.P,R36,2*%
%TO.N,/Mixer1/V_{ctrl}*%
X89500000Y-69070000D03*
%TD*%
D29*
%TO.P,Q13,1,G_1*%
%TO.N,Net-(Q11-D)*%
X178080000Y-127500000D03*
D30*
%TO.P,Q13,2,D_2*%
X175540000Y-127500000D03*
%TO.P,Q13,3,S_3*%
%TO.N,+12V*%
X173000000Y-127500000D03*
%TD*%
D10*
%TO.P,R2,1*%
%TO.N,+5V*%
X221313416Y-117374633D03*
%TO.P,R2,2*%
%TO.N,Net-(D2-A)*%
X219313416Y-117374633D03*
%TD*%
D34*
%TO.P,TP9,1,1_1*%
%TO.N,/Mixer2/V_{out}*%
X87500000Y-134070000D03*
%TD*%
D11*
%TO.P,R71,1*%
%TO.N,/Mixer2/V_{ctrl}*%
X189500000Y-138000000D03*
%TO.P,R71,2*%
%TO.N,Net-(Q12-S)*%
X191500000Y-138000000D03*
%TD*%
%TO.P,R60,1*%
%TO.N,Net-(Q10-D)*%
X111650000Y-68380000D03*
%TO.P,R60,2*%
%TO.N,/Mixer1/Iout1*%
X113650000Y-68380000D03*
%TD*%
D16*
%TO.P,J8,1,T_1*%
%TO.N,Net-(J8-T)*%
X99500000Y-126150000D03*
%TO.P,J8,2,TN_2*%
%TO.N,GND*%
X99500000Y-134450000D03*
%TO.P,J8,3,S_3*%
X99500000Y-137550000D03*
%TD*%
D35*
%TO.P,RV16,1,1_1*%
%TO.N,Net-(RV16-Pad1)*%
X201000000Y-101500000D03*
%TO.P,RV16,2,2_2*%
%TO.N,GND*%
X201000000Y-98960000D03*
%TO.P,RV16,3,3_3*%
X201000000Y-96420000D03*
%TD*%
D25*
%TO.P,R24,1*%
%TO.N,Net-(U5-R1)*%
X185610000Y-67310000D03*
%TO.P,R24,2*%
%TO.N,GND*%
X185610000Y-65310000D03*
%TD*%
D21*
%TO.P,RV11,*%
%TO.N,*%
X94700000Y-112990000D03*
X104300000Y-112990000D03*
D22*
%TO.P,RV11,1,1_1*%
%TO.N,Net-(J9-T)*%
X97000000Y-120490000D03*
%TO.P,RV11,2,2_2*%
%TO.N,Net-(R40-Pad1)*%
X99500000Y-120490000D03*
%TO.P,RV11,3,3_3*%
%TO.N,GND*%
X102000000Y-120490000D03*
%TD*%
D34*
%TO.P,TP16,1,1_1*%
%TO.N,Net-(C21-Pad2)*%
X137000000Y-82570000D03*
%TD*%
D15*
%TO.P,TP22,1,1_1*%
%TO.N,Net-(C30-Pad2)*%
X169500000Y-113500000D03*
%TD*%
D17*
%TO.P,R11,1*%
%TO.N,Net-(R11-Pad1)*%
X131120000Y-109080000D03*
%TO.P,R11,2*%
%TO.N,Net-(Q1-S)*%
X131120000Y-111080000D03*
%TD*%
D25*
%TO.P,R70,1*%
%TO.N,Net-(U10C-DIODE_BIAS)*%
X180190000Y-94650000D03*
%TO.P,R70,2*%
%TO.N,+12V*%
X180190000Y-92650000D03*
%TD*%
D32*
%TO.P,D3,1,K_1*%
%TO.N,Net-(D3-K)*%
X216318416Y-133374633D03*
D33*
%TO.P,D3,2,A_2*%
%TO.N,GND*%
X213778416Y-133374633D03*
%TD*%
D11*
%TO.P,R9,1*%
%TO.N,Net-(D4-K)*%
X150000000Y-111920000D03*
%TO.P,R9,2*%
%TO.N,Net-(Q1-D)*%
X152000000Y-111920000D03*
%TD*%
D34*
%TO.P,TP13,1,1_1*%
%TO.N,/Mixer1/V_{in2}*%
X127000000Y-88070000D03*
%TD*%
D17*
%TO.P,R57,1*%
%TO.N,Net-(C20-Pad2)*%
X138500000Y-55570000D03*
%TO.P,R57,2*%
%TO.N,GND*%
X138500000Y-57570000D03*
%TD*%
%TO.P,R83,1*%
%TO.N,Net-(U9A--)*%
X201690000Y-108650000D03*
%TO.P,R83,2*%
%TO.N,/Mixer2/V_{out}*%
X201690000Y-110650000D03*
%TD*%
D21*
%TO.P,RV8,*%
%TO.N,*%
X77200000Y-60570000D03*
X86800000Y-60570000D03*
D22*
%TO.P,RV8,1,1_1*%
%TO.N,+5V*%
X79500000Y-68070000D03*
%TO.P,RV8,2,2_2*%
%TO.N,Net-(R36-Pad1)*%
X82000000Y-68070000D03*
%TO.P,RV8,3,3_3*%
%TO.N,GND*%
X84500000Y-68070000D03*
%TD*%
D17*
%TO.P,R25,1*%
%TO.N,Net-(R25-Pad1)*%
X227574633Y-62439084D03*
%TO.P,R25,2*%
%TO.N,GND*%
X227574633Y-64439084D03*
%TD*%
%TO.P,R14,1*%
%TO.N,Net-(U4-V_{GG})*%
X197074633Y-46439084D03*
%TO.P,R14,2*%
%TO.N,GND*%
X197074633Y-48439084D03*
%TD*%
D36*
%TO.P,D8,1,K_1*%
%TO.N,Net-(D7-A)*%
X134810000Y-130580000D03*
D20*
%TO.P,D8,2,A_2*%
%TO.N,Net-(D8-A)*%
X142430000Y-130580000D03*
%TD*%
D25*
%TO.P,R46,1*%
%TO.N,Net-(C19-Pad2)*%
X121650000Y-73880000D03*
%TO.P,R46,2*%
%TO.N,Net-(U8C-+)*%
X121650000Y-71880000D03*
%TD*%
D17*
%TO.P,R41,1*%
%TO.N,/Mixer1/V_{out}*%
X199074633Y-62439084D03*
%TO.P,R41,2*%
%TO.N,Net-(U2C--)*%
X199074633Y-64439084D03*
%TD*%
D12*
%TO.P,C9,1*%
%TO.N,+5V*%
X215037133Y-47439084D03*
%TO.P,C9,2*%
%TO.N,GND*%
X217112133Y-47439084D03*
%TD*%
D11*
%TO.P,R82,1*%
%TO.N,Net-(C30-Pad2)*%
X178190000Y-110650000D03*
%TO.P,R82,2*%
%TO.N,Net-(U9A--)*%
X180190000Y-110650000D03*
%TD*%
D35*
%TO.P,RV14,1,1_1*%
%TO.N,Net-(RV14-Pad1)*%
X129650000Y-76760000D03*
%TO.P,RV14,2,2_2*%
%TO.N,GND*%
X129650000Y-79300000D03*
%TO.P,RV14,3,3_3*%
X129650000Y-81840000D03*
%TD*%
D28*
%TO.P,C27,1*%
%TO.N,/Mixer1/V_{in2}*%
X199500000Y-91962500D03*
%TO.P,C27,2*%
%TO.N,Net-(C27-Pad2)*%
X199500000Y-94037500D03*
%TD*%
D11*
%TO.P,R3,1*%
%TO.N,Net-(R3-Pad1)*%
X92000000Y-104570000D03*
%TO.P,R3,2*%
%TO.N,Net-(D4-K)*%
X94000000Y-104570000D03*
%TD*%
D29*
%TO.P,Q7,1,G_1*%
%TO.N,Net-(Q3-D)*%
X164580000Y-83070000D03*
D30*
%TO.P,Q7,2,D_2*%
%TO.N,Net-(Q10-G)*%
X162040000Y-83070000D03*
%TO.P,Q7,3,S_3*%
%TO.N,-12V*%
X159500000Y-83070000D03*
%TD*%
D11*
%TO.P,R20,1*%
%TO.N,Net-(U2A--)*%
X215500000Y-76537500D03*
%TO.P,R20,2*%
%TO.N,+12V*%
X217500000Y-76537500D03*
%TD*%
D13*
%TO.P,Q11,1,G_1*%
%TO.N,Net-(Q11-G)*%
X183550000Y-135420000D03*
D14*
%TO.P,Q11,2,D_2*%
%TO.N,Net-(Q11-D)*%
X183550000Y-137960000D03*
%TO.P,Q11,3,S_3*%
%TO.N,Net-(Q11-S)*%
X183550000Y-140500000D03*
%TD*%
D16*
%TO.P,J6,1,T_1*%
%TO.N,Net-(J6-T)*%
X63500000Y-73920000D03*
%TO.P,J6,2,TN_2*%
%TO.N,GND*%
X63500000Y-82220000D03*
%TO.P,J6,3,S_3*%
X63500000Y-85320000D03*
%TD*%
D11*
%TO.P,R5,1*%
%TO.N,Net-(R5-Pad1)*%
X87500000Y-104570000D03*
%TO.P,R5,2*%
%TO.N,Net-(D4-K)*%
X89500000Y-104570000D03*
%TD*%
D13*
%TO.P,Q4,1,G_1*%
%TO.N,Net-(Q2-D)*%
X151000000Y-73990000D03*
D14*
%TO.P,Q4,2,D_2*%
X151000000Y-76530000D03*
%TO.P,Q4,3,S_3*%
%TO.N,+12V*%
X151000000Y-79070000D03*
%TD*%
D13*
%TO.P,Q6,1,G_1*%
%TO.N,Net-(Q2-D)*%
X143050000Y-74030000D03*
D14*
%TO.P,Q6,2,D_2*%
%TO.N,Net-(Q6-D)*%
X143050000Y-76570000D03*
%TO.P,Q6,3,S_3*%
%TO.N,+12V*%
X143050000Y-79110000D03*
%TD*%
D29*
%TO.P,Q14,1,G_1*%
%TO.N,Net-(Q12-D)*%
X161420000Y-121000000D03*
D30*
%TO.P,Q14,2,D_2*%
X163960000Y-121000000D03*
%TO.P,Q14,3,S_3*%
%TO.N,-12V*%
X166500000Y-121000000D03*
%TD*%
D11*
%TO.P,R39,1*%
%TO.N,Net-(R39-Pad1)*%
X87500000Y-121570000D03*
%TO.P,R39,2*%
%TO.N,/Mixer2/V_{ctrl}*%
X89500000Y-121570000D03*
%TD*%
D10*
%TO.P,R48,1*%
%TO.N,Net-(U8C-+)*%
X118150000Y-75380000D03*
%TO.P,R48,2*%
%TO.N,GND*%
X116150000Y-75380000D03*
%TD*%
D12*
%TO.P,C8,1*%
%TO.N,Net-(U5-C1(1))*%
X185110000Y-80500000D03*
%TO.P,C8,2*%
%TO.N,Net-(U5-C1(2))*%
X187185000Y-80500000D03*
%TD*%
D32*
%TO.P,D2,1,K_1*%
%TO.N,GND*%
X213858304Y-117374633D03*
D33*
%TO.P,D2,2,A_2*%
%TO.N,Net-(D2-A)*%
X216398304Y-117374633D03*
%TD*%
D37*
%TO.P,U10,1*%
%TO.N,/Mixer2/Iout1*%
X183190000Y-93110000D03*
D38*
%TO.P,U10,2,DIODE_BIAS_2*%
%TO.N,Net-(U10C-DIODE_BIAS)*%
X183190000Y-95650000D03*
%TO.P,U10,3,+_3*%
%TO.N,Net-(U10C-+)*%
X183190000Y-98190000D03*
%TO.P,U10,4,-_4*%
%TO.N,Net-(U10C--)*%
X183190000Y-100730000D03*
%TO.P,U10,5*%
%TO.N,Net-(RV17-Pad1)*%
X183190000Y-103270000D03*
%TO.P,U10,6,V-_6*%
%TO.N,-12V*%
X183190000Y-105810000D03*
%TO.P,U10,7*%
%TO.N,Net-(RV17-Pad1)*%
X183190000Y-108350000D03*
%TO.P,U10,8*%
%TO.N,Net-(C30-Pad1)*%
X183190000Y-110890000D03*
%TO.P,U10,9*%
%TO.N,Net-(C29-Pad1)*%
X190810000Y-110890000D03*
%TO.P,U10,10*%
%TO.N,Net-(RV16-Pad1)*%
X190810000Y-108350000D03*
%TO.P,U10,11,V+_11*%
%TO.N,+12V*%
X190810000Y-105810000D03*
%TO.P,U10,12*%
%TO.N,Net-(RV16-Pad1)*%
X190810000Y-103270000D03*
%TO.P,U10,13,-_13*%
%TO.N,Net-(U10A--)*%
X190810000Y-100730000D03*
%TO.P,U10,14,+_14*%
%TO.N,Net-(U10A-+)*%
X190810000Y-98190000D03*
%TO.P,U10,15,DIODE_BIAS_15*%
%TO.N,Net-(U10A-DIODE_BIAS)*%
X190810000Y-95650000D03*
%TO.P,U10,16*%
%TO.N,/Mixer2/Iout2*%
X190810000Y-93110000D03*
%TD*%
D18*
%TO.P,C24,1*%
%TO.N,+12V*%
X129150000Y-58417500D03*
%TO.P,C24,2*%
%TO.N,GND*%
X129150000Y-56342500D03*
%TD*%
D13*
%TO.P,Q12,1,G_1*%
%TO.N,Net-(D12-A)*%
X175550000Y-135960000D03*
D14*
%TO.P,Q12,2,D_2*%
%TO.N,Net-(Q12-D)*%
X175550000Y-138500000D03*
%TO.P,Q12,3,S_3*%
%TO.N,Net-(Q12-S)*%
X175550000Y-141040000D03*
%TD*%
D37*
%TO.P,U1,1*%
%TO.N,Net-(U4-IN)*%
X139500000Y-101380000D03*
D38*
%TO.P,U1,2,-_2*%
%TO.N,Net-(U1A--)*%
X139500000Y-103920000D03*
%TO.P,U1,3,+_3*%
%TO.N,GND*%
X139500000Y-106460000D03*
%TO.P,U1,4,V+_4*%
%TO.N,+12V*%
X139500000Y-109000000D03*
%TO.P,U1,5,+_5*%
%TO.N,Net-(D7-A)*%
X139500000Y-111540000D03*
%TO.P,U1,6,-_6*%
%TO.N,Net-(U1B--)*%
X139500000Y-114080000D03*
%TO.P,U1,7*%
X139500000Y-116620000D03*
%TO.P,U1,8*%
%TO.N,Net-(D4-A)*%
X147120000Y-116620000D03*
%TO.P,U1,9,-_9*%
%TO.N,Net-(D4-K)*%
X147120000Y-114080000D03*
%TO.P,U1,10,+_10*%
%TO.N,GND*%
X147120000Y-111540000D03*
%TO.P,U1,11,V-_11*%
%TO.N,-12V*%
X147120000Y-109000000D03*
%TO.P,U1,12,+_12*%
%TO.N,/in*%
X147120000Y-106460000D03*
%TO.P,U1,13,-_13*%
%TO.N,/Mixer1/V_{in1}*%
X147120000Y-103920000D03*
%TO.P,U1,14*%
X147120000Y-101380000D03*
%TD*%
D16*
%TO.P,J1,1,T_1*%
%TO.N,/in*%
X63500000Y-40500000D03*
%TO.P,J1,2,TN_2*%
%TO.N,GND*%
X63500000Y-48800000D03*
%TO.P,J1,3,S_3*%
X63500000Y-51900000D03*
%TD*%
D29*
%TO.P,Q8,1,G_1*%
%TO.N,Net-(Q10-G)*%
X116460000Y-88020000D03*
D30*
%TO.P,Q8,2,D_2*%
X119000000Y-88020000D03*
%TO.P,Q8,3,S_3*%
%TO.N,+12V*%
X121540000Y-88020000D03*
%TD*%
D12*
%TO.P,C33,1*%
%TO.N,+12V*%
X193652500Y-105650000D03*
%TO.P,C33,2*%
%TO.N,GND*%
X195727500Y-105650000D03*
%TD*%
D25*
%TO.P,R42,1*%
%TO.N,Net-(U2C--)*%
X202000000Y-64537500D03*
%TO.P,R42,2*%
%TO.N,Net-(R42-Pad2)*%
X202000000Y-62537500D03*
%TD*%
D36*
%TO.P,D11,1,K_1*%
%TO.N,/Mixer1/V_{ctrl}*%
X146190000Y-67570000D03*
D20*
%TO.P,D11,2,A_2*%
%TO.N,Net-(D11-A)*%
X153810000Y-67570000D03*
%TD*%
D18*
%TO.P,C20,1*%
%TO.N,Net-(C20-Pad1)*%
X134150000Y-58417500D03*
%TO.P,C20,2*%
%TO.N,Net-(C20-Pad2)*%
X134150000Y-56342500D03*
%TD*%
D11*
%TO.P,R79,1*%
%TO.N,Net-(Q15-D)*%
X182500000Y-120000000D03*
%TO.P,R79,2*%
%TO.N,/Mixer2/Iout2*%
X184500000Y-120000000D03*
%TD*%
D25*
%TO.P,R47,1*%
%TO.N,Net-(U8A-+)*%
X118150000Y-58380000D03*
%TO.P,R47,2*%
%TO.N,GND*%
X118150000Y-56380000D03*
%TD*%
D15*
%TO.P,TP4,1,1_1*%
%TO.N,Net-(U4-CP1)*%
X179000000Y-81000000D03*
%TD*%
D11*
%TO.P,R19,1*%
%TO.N,Net-(U2A-+)*%
X215500000Y-73037500D03*
%TO.P,R19,2*%
%TO.N,GND*%
X217500000Y-73037500D03*
%TD*%
D35*
%TO.P,RV12,1,1_1*%
%TO.N,Net-(R44-Pad2)*%
X137420000Y-50570000D03*
%TO.P,RV12,2,2_2*%
X139960000Y-50570000D03*
%TO.P,RV12,3,3_3*%
%TO.N,Net-(Q2-S)*%
X142500000Y-50570000D03*
%TD*%
D36*
%TO.P,C12,1*%
%TO.N,GND*%
X225319775Y-133374633D03*
D20*
%TO.P,C12,2*%
%TO.N,-12V*%
X227319775Y-133374633D03*
%TD*%
D11*
%TO.P,R34,1*%
%TO.N,Net-(D10-K)*%
X190110000Y-63310000D03*
%TO.P,R34,2*%
%TO.N,Net-(R34-Pad2)*%
X192110000Y-63310000D03*
%TD*%
D39*
%TO.P,J4,1,P1_1*%
%TO.N,Net-(J4-P1)*%
X232230000Y-116764633D03*
%TO.P,J4,2,P2_2*%
X234770000Y-116764633D03*
%TO.P,J4,3,P3_3*%
%TO.N,Net-(J4-P3)*%
X232230000Y-119304633D03*
%TO.P,J4,4,P4_4*%
X234770000Y-119304633D03*
%TO.P,J4,5,+12V_5*%
%TO.N,+5V*%
X232230000Y-121844633D03*
%TO.P,J4,6,P6_6*%
X234770000Y-121844633D03*
%TO.P,J4,7,12V_7*%
%TO.N,+12V*%
X232230000Y-124384633D03*
%TO.P,J4,8,+12V_8*%
X234770000Y-124384633D03*
%TO.P,J4,9,GND_9*%
%TO.N,GND*%
X232230000Y-126924633D03*
%TO.P,J4,10,GND_10*%
X234770000Y-126924633D03*
%TO.P,J4,11,GND_11*%
X232230000Y-129464633D03*
%TO.P,J4,12,GND_12*%
X234770000Y-129464633D03*
%TO.P,J4,13,-12_13*%
X232230000Y-132004633D03*
%TO.P,J4,14,-12V_14*%
X234770000Y-132004633D03*
%TO.P,J4,15,-12V_15*%
%TO.N,-12V*%
X232230000Y-134544633D03*
%TO.P,J4,16,P16_16*%
X234770000Y-134544633D03*
%TD*%
D28*
%TO.P,C1,1*%
%TO.N,+12V*%
X136500000Y-108920000D03*
%TO.P,C1,2*%
%TO.N,GND*%
X136500000Y-110995000D03*
%TD*%
D25*
%TO.P,R56,1*%
%TO.N,Net-(C21-Pad1)*%
X138650000Y-67380000D03*
%TO.P,R56,2*%
%TO.N,-12V*%
X138650000Y-65380000D03*
%TD*%
D36*
%TO.P,D9,1,K_1*%
%TO.N,+5V*%
X178300000Y-59810000D03*
D20*
%TO.P,D9,2,A_2*%
%TO.N,Net-(D10-K)*%
X185920000Y-59810000D03*
%TD*%
D34*
%TO.P,TP3,1,1_1*%
%TO.N,Net-(R11-Pad1)*%
X118120000Y-115080000D03*
%TD*%
D29*
%TO.P,Q18,1,G_1*%
%TO.N,Net-(Q12-D)*%
X161460000Y-129450000D03*
D30*
%TO.P,Q18,2,D_2*%
%TO.N,Net-(Q15-D)*%
X164000000Y-129450000D03*
%TO.P,Q18,3,S_3*%
%TO.N,-12V*%
X166540000Y-129450000D03*
%TD*%
D28*
%TO.P,C19,1*%
%TO.N,/Mixer1/V_{in2}*%
X125150000Y-71805000D03*
%TO.P,C19,2*%
%TO.N,Net-(C19-Pad2)*%
X125150000Y-73880000D03*
%TD*%
D27*
%TO.P,C30,1*%
%TO.N,Net-(C30-Pad1)*%
X180227500Y-113150000D03*
%TO.P,C30,2*%
%TO.N,Net-(C30-Pad2)*%
X178152500Y-113150000D03*
%TD*%
D28*
%TO.P,C2,1*%
%TO.N,GND*%
X150000000Y-106845000D03*
%TO.P,C2,2*%
%TO.N,-12V*%
X150000000Y-108920000D03*
%TD*%
D11*
%TO.P,R53,1*%
%TO.N,Net-(U8C--)*%
X123650000Y-77380000D03*
%TO.P,R53,2*%
%TO.N,GND*%
X125650000Y-77380000D03*
%TD*%
D13*
%TO.P,Q19,1,G_1*%
%TO.N,Net-(Q16-D)*%
X170550000Y-89460000D03*
D14*
%TO.P,Q19,2,D_2*%
%TO.N,Net-(Q19-D)*%
X170550000Y-92000000D03*
%TO.P,Q19,3,S_3*%
%TO.N,+12V*%
X170550000Y-94540000D03*
%TD*%
D18*
%TO.P,C25,1*%
%TO.N,GND*%
X129150000Y-73917500D03*
%TO.P,C25,2*%
%TO.N,-12V*%
X129150000Y-71842500D03*
%TD*%
D10*
%TO.P,R1,1*%
%TO.N,+12V*%
X221313416Y-125374633D03*
%TO.P,R1,2*%
%TO.N,Net-(D1-A)*%
X219313416Y-125374633D03*
%TD*%
D12*
%TO.P,C6,1*%
%TO.N,GND*%
X114082500Y-95080000D03*
%TO.P,C6,2*%
%TO.N,-12V*%
X116157500Y-95080000D03*
%TD*%
D25*
%TO.P,R23,1*%
%TO.N,Net-(U5-R2)*%
X182190000Y-67310000D03*
%TO.P,R23,2*%
%TO.N,GND*%
X182190000Y-65310000D03*
%TD*%
D17*
%TO.P,R15,1*%
%TO.N,Net-(U3A--)*%
X120770000Y-108840000D03*
%TO.P,R15,2*%
%TO.N,GND*%
X120770000Y-110840000D03*
%TD*%
D25*
%TO.P,R62,1*%
%TO.N,Net-(C21-Pad2)*%
X134150000Y-73880000D03*
%TO.P,R62,2*%
%TO.N,Net-(U7A--)*%
X134150000Y-71880000D03*
%TD*%
D17*
%TO.P,R30,1*%
%TO.N,GND*%
X148120000Y-128080000D03*
%TO.P,R30,2*%
%TO.N,Net-(D8-A)*%
X148120000Y-130080000D03*
%TD*%
D11*
%TO.P,R66,1*%
%TO.N,Net-(C28-Pad2)*%
X178190000Y-98150000D03*
%TO.P,R66,2*%
%TO.N,Net-(U10C-+)*%
X180190000Y-98150000D03*
%TD*%
D12*
%TO.P,C29,1*%
%TO.N,Net-(C29-Pad1)*%
X193652500Y-110650000D03*
%TO.P,C29,2*%
%TO.N,Net-(C29-Pad2)*%
X195727500Y-110650000D03*
%TD*%
D18*
%TO.P,C3,1*%
%TO.N,+12V*%
X215500000Y-69537500D03*
%TO.P,C3,2*%
%TO.N,GND*%
X215500000Y-67462500D03*
%TD*%
D10*
%TO.P,R13,1*%
%TO.N,+5V*%
X202574633Y-46939084D03*
%TO.P,R13,2*%
%TO.N,Net-(U4-V_{GG})*%
X200574633Y-46939084D03*
%TD*%
D19*
%TO.P,D4,1,K_1*%
%TO.N,Net-(D4-K)*%
X150500000Y-114610000D03*
D20*
%TO.P,D4,2,A_2*%
%TO.N,Net-(D4-A)*%
X150500000Y-122230000D03*
%TD*%
D25*
%TO.P,R52,1*%
%TO.N,Net-(U8A--)*%
X127650000Y-53380000D03*
%TO.P,R52,2*%
%TO.N,GND*%
X127650000Y-51380000D03*
%TD*%
D11*
%TO.P,R76,1*%
%TO.N,Net-(C30-Pad1)*%
X184690000Y-115150000D03*
%TO.P,R76,2*%
%TO.N,-12V*%
X186690000Y-115150000D03*
%TD*%
D12*
%TO.P,C32,1*%
%TO.N,GND*%
X194425000Y-134000000D03*
%TO.P,C32,2*%
%TO.N,-12V*%
X196500000Y-134000000D03*
%TD*%
D26*
%TO.P,U4,1,GND_1*%
%TO.N,GND*%
X199954633Y-57749084D03*
D24*
%TO.P,U4,2,CP2_2*%
%TO.N,Net-(U4-CP2)*%
X202494633Y-57749084D03*
%TO.P,U4,3,OUT1_3*%
%TO.N,Net-(U4-OUT1)*%
X212654633Y-57749084D03*
%TO.P,U4,4,OUT2_4*%
%TO.N,unconnected-(U4-OUT2-Pad4)*%
X215194633Y-57749084D03*
%TO.P,U4,5,V_{DD}_5*%
%TO.N,+5V*%
X215194633Y-50129084D03*
%TO.P,U4,6,CP1_6*%
%TO.N,Net-(U4-CP1)*%
X212654633Y-50129084D03*
%TO.P,U4,7,IN_7*%
%TO.N,Net-(U4-IN)*%
X202494633Y-50129084D03*
%TO.P,U4,8,V_{GG}_8*%
%TO.N,Net-(U4-V_{GG})*%
X199954633Y-50129084D03*
%TD*%
D10*
%TO.P,R65,1*%
%TO.N,Net-(C27-Pad2)*%
X195690000Y-98150000D03*
%TO.P,R65,2*%
%TO.N,Net-(U10A-+)*%
X193690000Y-98150000D03*
%TD*%
D35*
%TO.P,RV4,1,1_1*%
%TO.N,Net-(U3A-+)*%
X130080000Y-116080000D03*
%TO.P,RV4,2,2_2*%
%TO.N,Net-(U1B--)*%
X132620000Y-116080000D03*
%TO.P,RV4,3,3_3*%
X135160000Y-116080000D03*
%TD*%
D12*
%TO.P,C26,1*%
%TO.N,Net-(D12-A)*%
X188925000Y-134000000D03*
%TO.P,C26,2*%
%TO.N,/Mixer2/V_{ctrl}*%
X191000000Y-134000000D03*
%TD*%
D10*
%TO.P,R26,1*%
%TO.N,Net-(D7-K)*%
X145120000Y-122580000D03*
%TO.P,R26,2*%
%TO.N,+12V*%
X143120000Y-122580000D03*
%TD*%
D28*
%TO.P,C10,1*%
%TO.N,Net-(U4-CP1)*%
X219074633Y-67439084D03*
%TO.P,C10,2*%
%TO.N,Net-(U2A-+)*%
X219074633Y-69514084D03*
%TD*%
D31*
%TO.P,D10,1,K_1*%
%TO.N,Net-(D10-K)*%
X185920000Y-55810000D03*
D20*
%TO.P,D10,2,A_2*%
%TO.N,GND*%
X178300000Y-55810000D03*
%TD*%
D15*
%TO.P,TP8,1,1_1*%
%TO.N,Net-(U2B--)*%
X225500000Y-54537500D03*
%TD*%
D11*
%TO.P,R37,1*%
%TO.N,Net-(R37-Pad1)*%
X92000000Y-69070000D03*
%TO.P,R37,2*%
%TO.N,/Mixer1/V_{ctrl}*%
X94000000Y-69070000D03*
%TD*%
D39*
%TO.P,SW1,1,A_1*%
%TO.N,/Mixer1/V_{in2}*%
X82000000Y-128570000D03*
%TO.P,SW1,2,B_2*%
%TO.N,Net-(SW1-B)*%
X82000000Y-131110000D03*
%TO.P,SW1,3,C_3*%
%TO.N,/Mixer2/V_{out}*%
X82000000Y-133650000D03*
%TD*%
D11*
%TO.P,R18,1*%
%TO.N,GND*%
X211500000Y-80537500D03*
%TO.P,R18,2*%
%TO.N,Net-(U2A--)*%
X213500000Y-80537500D03*
%TD*%
D23*
%TO.P,U9,1*%
%TO.N,/Mixer2/V_{out}*%
X204040000Y-123000000D03*
D24*
%TO.P,U9,2,-_2*%
%TO.N,Net-(U9A--)*%
X201500000Y-123000000D03*
%TO.P,U9,3,+_3*%
%TO.N,GND*%
X198960000Y-123000000D03*
%TO.P,U9,4,V+_4*%
%TO.N,+12V*%
X196420000Y-123000000D03*
%TO.P,U9,5,+_5*%
%TO.N,GND*%
X193880000Y-123000000D03*
%TO.P,U9,6,-_6*%
%TO.N,Net-(Q11-S)*%
X191340000Y-123000000D03*
%TO.P,U9,7*%
%TO.N,Net-(Q11-G)*%
X188800000Y-123000000D03*
%TO.P,U9,8*%
%TO.N,Net-(D12-A)*%
X188800000Y-130620000D03*
%TO.P,U9,9,-_9*%
%TO.N,/Mixer2/V_{ctrl}*%
X191340000Y-130620000D03*
%TO.P,U9,10,+_10*%
%TO.N,GND*%
X193880000Y-130620000D03*
%TO.P,U9,11,V-_11*%
%TO.N,-12V*%
X196420000Y-130620000D03*
%TO.P,U9,12,+_12*%
%TO.N,GND*%
X198960000Y-130620000D03*
%TO.P,U9,13,-_13*%
%TO.N,Net-(U9D--)*%
X201500000Y-130620000D03*
%TO.P,U9,14*%
X204040000Y-130620000D03*
%TD*%
D18*
%TO.P,C7,1*%
%TO.N,Net-(U4-V_{GG})*%
X197074633Y-54476584D03*
%TO.P,C7,2*%
%TO.N,GND*%
X197074633Y-52401584D03*
%TD*%
D17*
%TO.P,R27,1*%
%TO.N,Net-(D8-A)*%
X145120000Y-130580000D03*
%TO.P,R27,2*%
%TO.N,-12V*%
X145120000Y-132580000D03*
%TD*%
D25*
%TO.P,R54,1*%
%TO.N,Net-(Q3-S)*%
X161500000Y-56070000D03*
%TO.P,R54,2*%
%TO.N,GND*%
X161500000Y-54070000D03*
%TD*%
%TO.P,R51,1*%
%TO.N,/Mixer1/V_{ctrl}*%
X161500000Y-62570000D03*
%TO.P,R51,2*%
%TO.N,Net-(Q3-S)*%
X161500000Y-60570000D03*
%TD*%
D15*
%TO.P,TP18,1,1_1*%
%TO.N,/Mixer1/V_{in2}*%
X195000000Y-89500000D03*
%TD*%
D31*
%TO.P,C11,1*%
%TO.N,+12V*%
X227230000Y-125500000D03*
D20*
%TO.P,C11,2*%
%TO.N,GND*%
X225230000Y-125500000D03*
%TD*%
D15*
%TO.P,TP5,1,1_1*%
%TO.N,Net-(U4-OUT1)*%
X220000000Y-56037500D03*
%TD*%
D17*
%TO.P,R35,1*%
%TO.N,GND*%
X88500000Y-82570000D03*
%TO.P,R35,2*%
%TO.N,Net-(R35-Pad2)*%
X88500000Y-84570000D03*
%TD*%
D10*
%TO.P,R33,1*%
%TO.N,Net-(U2D-+)*%
X202000000Y-72939084D03*
%TO.P,R33,2*%
%TO.N,GND*%
X200000000Y-72939084D03*
%TD*%
D12*
%TO.P,C18,1*%
%TO.N,/Mixer1/V_{in1}*%
X115462500Y-52570000D03*
%TO.P,C18,2*%
%TO.N,Net-(C18-Pad2)*%
X117537500Y-52570000D03*
%TD*%
D34*
%TO.P,TP14,1,1_1*%
%TO.N,Net-(Q2-S)*%
X165500000Y-62070000D03*
%TD*%
D25*
%TO.P,R28,1*%
%TO.N,GND*%
X145120000Y-127080000D03*
%TO.P,R28,2*%
%TO.N,Net-(D7-K)*%
X145120000Y-125080000D03*
%TD*%
%TO.P,R68,1*%
%TO.N,Net-(U10C-+)*%
X176690000Y-94650000D03*
%TO.P,R68,2*%
%TO.N,GND*%
X176690000Y-92650000D03*
%TD*%
D29*
%TO.P,Q10,1,G_1*%
%TO.N,Net-(Q10-G)*%
X112960000Y-81520000D03*
D30*
%TO.P,Q10,2,D_2*%
%TO.N,Net-(Q10-D)*%
X115500000Y-81520000D03*
%TO.P,Q10,3,S_3*%
%TO.N,+12V*%
X118040000Y-81520000D03*
%TD*%
D34*
%TO.P,TP1,1,1_1*%
%TO.N,Net-(Q1-S)*%
X118120000Y-122080000D03*
%TD*%
D29*
%TO.P,Q3,1,G_1*%
%TO.N,Net-(D11-A)*%
X159460000Y-76520000D03*
D30*
%TO.P,Q3,2,D_2*%
%TO.N,Net-(Q3-D)*%
X162000000Y-76520000D03*
%TO.P,Q3,3,S_3*%
%TO.N,Net-(Q3-S)*%
X164540000Y-76520000D03*
%TD*%
D11*
%TO.P,R6,1*%
%TO.N,Net-(R6-Pad1)*%
X135000000Y-101920000D03*
%TO.P,R6,2*%
%TO.N,Net-(U1A--)*%
X137000000Y-101920000D03*
%TD*%
D28*
%TO.P,C22,1*%
%TO.N,+12V*%
X143500000Y-55570000D03*
%TO.P,C22,2*%
%TO.N,GND*%
X143500000Y-57645000D03*
%TD*%
D35*
%TO.P,RV17,1,1_1*%
%TO.N,Net-(RV17-Pad1)*%
X175310000Y-106150000D03*
%TO.P,RV17,2,2_2*%
%TO.N,GND*%
X172770000Y-106150000D03*
%TO.P,RV17,3,3_3*%
X170230000Y-106150000D03*
%TD*%
D25*
%TO.P,R10,1*%
%TO.N,Net-(Q1-D)*%
X154000000Y-108920000D03*
%TO.P,R10,2*%
%TO.N,GND*%
X154000000Y-106920000D03*
%TD*%
D15*
%TO.P,TP2,1,1_1*%
%TO.N,Net-(U4-IN)*%
X207074633Y-46439084D03*
%TD*%
D13*
%TO.P,Q16,1,G_1*%
%TO.N,Net-(Q12-D)*%
X169000000Y-141080000D03*
D14*
%TO.P,Q16,2,D_2*%
%TO.N,Net-(Q16-D)*%
X169000000Y-138540000D03*
%TO.P,Q16,3,S_3*%
%TO.N,-12V*%
X169000000Y-136000000D03*
%TD*%
D13*
%TO.P,Q17,1,G_1*%
%TO.N,Net-(Q16-D)*%
X164050000Y-92960000D03*
D14*
%TO.P,Q17,2,D_2*%
X164050000Y-95500000D03*
%TO.P,Q17,3,S_3*%
%TO.N,+12V*%
X164050000Y-98040000D03*
%TD*%
D10*
%TO.P,R21,1*%
%TO.N,Net-(U6-T)*%
X217500000Y-80037500D03*
%TO.P,R21,2*%
%TO.N,Net-(R21-Pad2)*%
X215500000Y-80037500D03*
%TD*%
D29*
%TO.P,Q15,1,G_1*%
%TO.N,Net-(Q11-D)*%
X178040000Y-119550000D03*
D30*
%TO.P,Q15,2,D_2*%
%TO.N,Net-(Q15-D)*%
X175500000Y-119550000D03*
%TO.P,Q15,3,S_3*%
%TO.N,+12V*%
X172960000Y-119550000D03*
%TD*%
D11*
%TO.P,R8,1*%
%TO.N,Net-(U1A--)*%
X137500000Y-98420000D03*
%TO.P,R8,2*%
%TO.N,Net-(U4-IN)*%
X139500000Y-98420000D03*
%TD*%
D28*
%TO.P,C21,1*%
%TO.N,Net-(C21-Pad1)*%
X136650000Y-71842500D03*
%TO.P,C21,2*%
%TO.N,Net-(C21-Pad2)*%
X136650000Y-73917500D03*
%TD*%
D37*
%TO.P,U7,1*%
%TO.N,/Mixer1/V_{out}*%
X146500000Y-48030000D03*
D38*
%TO.P,U7,2,-_2*%
%TO.N,Net-(U7A--)*%
X146500000Y-50570000D03*
%TO.P,U7,3,+_3*%
%TO.N,GND*%
X146500000Y-53110000D03*
%TO.P,U7,4,V+_4*%
%TO.N,+12V*%
X146500000Y-55650000D03*
%TO.P,U7,5,+_5*%
%TO.N,GND*%
X146500000Y-58190000D03*
%TO.P,U7,6,-_6*%
%TO.N,Net-(Q2-S)*%
X146500000Y-60730000D03*
%TO.P,U7,7*%
%TO.N,Net-(Q2-G)*%
X146500000Y-63270000D03*
%TO.P,U7,8*%
%TO.N,Net-(D11-A)*%
X154120000Y-63270000D03*
%TO.P,U7,9,-_9*%
%TO.N,/Mixer1/V_{ctrl}*%
X154120000Y-60730000D03*
%TO.P,U7,10,+_10*%
%TO.N,GND*%
X154120000Y-58190000D03*
%TO.P,U7,11,V-_11*%
%TO.N,-12V*%
X154120000Y-55650000D03*
%TO.P,U7,12,+_12*%
%TO.N,GND*%
X154120000Y-53110000D03*
%TO.P,U7,13,-_13*%
%TO.N,Net-(U7D--)*%
X154120000Y-50570000D03*
%TO.P,U7,14*%
X154120000Y-48030000D03*
%TD*%
D25*
%TO.P,R59,1*%
%TO.N,Net-(Q6-D)*%
X143500000Y-69570000D03*
%TO.P,R59,2*%
%TO.N,/Mixer1/Iout2*%
X143500000Y-67570000D03*
%TD*%
D34*
%TO.P,TP17,1,1_1*%
%TO.N,/Mixer1/V_{out}*%
X146500000Y-44570000D03*
%TD*%
D17*
%TO.P,R17,1*%
%TO.N,Net-(U3A-+)*%
X124270000Y-108840000D03*
%TO.P,R17,2*%
%TO.N,GND*%
X124270000Y-110840000D03*
%TD*%
D25*
%TO.P,R31,1*%
%TO.N,+5V*%
X177190000Y-67310000D03*
%TO.P,R31,2*%
%TO.N,Net-(R31-Pad2)*%
X177190000Y-65310000D03*
%TD*%
D11*
%TO.P,R74,1*%
%TO.N,Net-(Q12-S)*%
X196000000Y-138000000D03*
%TO.P,R74,2*%
%TO.N,GND*%
X198000000Y-138000000D03*
%TD*%
%TO.P,R32,1*%
%TO.N,Net-(D10-K)*%
X190110000Y-67310000D03*
%TO.P,R32,2*%
%TO.N,Net-(R32-Pad2)*%
X192110000Y-67310000D03*
%TD*%
D15*
%TO.P,TP20,1,1_1*%
%TO.N,Net-(Q11-S)*%
X190000000Y-142000000D03*
%TD*%
D21*
%TO.P,RV10,*%
%TO.N,*%
X77193947Y-112990000D03*
X86793947Y-112990000D03*
D22*
%TO.P,RV10,1,1_1*%
%TO.N,+5V*%
X79493947Y-120490000D03*
%TO.P,RV10,2,2_2*%
%TO.N,Net-(R39-Pad1)*%
X81993947Y-120490000D03*
%TO.P,RV10,3,3_3*%
%TO.N,GND*%
X84493947Y-120490000D03*
%TD*%
D18*
%TO.P,C16,1*%
%TO.N,Net-(U2D-+)*%
X215500000Y-64075000D03*
%TO.P,C16,2*%
%TO.N,Net-(U2B--)*%
X215500000Y-62000000D03*
%TD*%
D36*
%TO.P,U6,1,V^{+}_1*%
%TO.N,+12V*%
X221769633Y-67629084D03*
D20*
%TO.P,U6,2,Adj_2*%
%TO.N,Net-(U6-Adj)*%
X221769633Y-70169084D03*
%TO.P,U6,3,I_3*%
%TO.N,Net-(U4-OUT1)*%
X221769633Y-72709084D03*
%TO.P,U6,4,V^{-}_4*%
%TO.N,-12V*%
X221769633Y-75249084D03*
%TO.P,U6,5*%
%TO.N,Net-(U2B-+)*%
X229389633Y-75249084D03*
%TO.P,U6,6,C_{h}_6*%
%TO.N,Net-(U6-C_{h})*%
X229389633Y-72709084D03*
%TO.P,U6,7,T_7*%
%TO.N,Net-(U6-T)*%
X229389633Y-70169084D03*
%TO.P,U6,8,Hold_8*%
%TO.N,GND*%
X229389633Y-67629084D03*
%TD*%
D11*
%TO.P,R63,1*%
%TO.N,Net-(U7A--)*%
X132150000Y-50380000D03*
%TO.P,R63,2*%
%TO.N,/Mixer1/V_{out}*%
X134150000Y-50380000D03*
%TD*%
D35*
%TO.P,RV13,1,1_1*%
%TO.N,Net-(RV13-Pad1)*%
X125000000Y-51070000D03*
%TO.P,RV13,2,2_2*%
%TO.N,GND*%
X122460000Y-51070000D03*
%TO.P,RV13,3,3_3*%
X119920000Y-51070000D03*
%TD*%
D40*
%TO.P,U2,1*%
%TO.N,Net-(R21-Pad2)*%
X212620000Y-77577500D03*
D38*
%TO.P,U2,2,-_2*%
%TO.N,Net-(U2A--)*%
X212620000Y-75037500D03*
%TO.P,U2,3,+_3*%
%TO.N,Net-(U2A-+)*%
X212620000Y-72497500D03*
%TO.P,U2,4,V+_4*%
%TO.N,+12V*%
X212620000Y-69957500D03*
%TO.P,U2,5,+_5*%
%TO.N,Net-(U2B-+)*%
X212620000Y-67417500D03*
%TO.P,U2,6,-_6*%
%TO.N,Net-(U2B--)*%
X212620000Y-64877500D03*
%TO.P,U2,7*%
X212620000Y-62337500D03*
%TO.P,U2,8*%
%TO.N,Net-(R42-Pad2)*%
X205000000Y-62337500D03*
%TO.P,U2,9,-_9*%
%TO.N,Net-(U2C--)*%
X205000000Y-64877500D03*
%TO.P,U2,10,+_10*%
%TO.N,GND*%
X205000000Y-67417500D03*
%TO.P,U2,11,V-_11*%
%TO.N,-12V*%
X205000000Y-69957500D03*
%TO.P,U2,12,+_12*%
%TO.N,Net-(U2D-+)*%
X205000000Y-72497500D03*
%TO.P,U2,13,-_13*%
%TO.N,/Mixer1/V_{in2}*%
X205000000Y-75037500D03*
%TO.P,U2,14*%
X205000000Y-77577500D03*
%TD*%
D34*
%TO.P,TP15,1,1_1*%
%TO.N,Net-(C20-Pad2)*%
X133500000Y-46570000D03*
%TD*%
D17*
%TO.P,R73,1*%
%TO.N,Net-(U10C--)*%
X174690000Y-100150000D03*
%TO.P,R73,2*%
%TO.N,GND*%
X174690000Y-102150000D03*
%TD*%
D10*
%TO.P,R77,1*%
%TO.N,Net-(C29-Pad2)*%
X196500000Y-115000000D03*
%TO.P,R77,2*%
%TO.N,GND*%
X194500000Y-115000000D03*
%TD*%
D35*
%TO.P,RV5,1,1_1*%
%TO.N,Net-(R25-Pad1)*%
X224614633Y-62439084D03*
%TO.P,RV5,2,2_2*%
%TO.N,Net-(U6-Adj)*%
X222074633Y-62439084D03*
%TO.P,RV5,3,3_3*%
%TO.N,+12V*%
X219534633Y-62439084D03*
%TD*%
D26*
%TO.P,U5,1,PHPLS_1*%
%TO.N,unconnected-(U5-PHPLS-Pad1)*%
X172110000Y-77810000D03*
D24*
%TO.P,U5,2,PHCMPI_2*%
%TO.N,Net-(U4-CP2)*%
X174650000Y-77810000D03*
%TO.P,U5,3,COMPIN_3*%
%TO.N,Net-(U4-CP1)*%
X177190000Y-77810000D03*
%TO.P,U5,4,VCOOUT_4*%
X179730000Y-77810000D03*
%TO.P,U5,5,INHIBIT_5*%
%TO.N,GND*%
X182270000Y-77810000D03*
%TO.P,U5,6,C1(1)_6*%
%TO.N,Net-(U5-C1(1))*%
X184810000Y-77810000D03*
%TO.P,U5,7,C1(2)_7*%
%TO.N,Net-(U5-C1(2))*%
X187350000Y-77810000D03*
%TO.P,U5,8,V_{SS}_8*%
%TO.N,GND*%
X189890000Y-77810000D03*
%TO.P,U5,9,VCO_IN_9*%
%TO.N,Net-(D10-K)*%
X189890000Y-70190000D03*
%TO.P,U5,10,DEMOUT_10*%
%TO.N,unconnected-(U5-DEMOUT-Pad10)*%
X187350000Y-70190000D03*
%TO.P,U5,11,R1_11*%
%TO.N,Net-(U5-R1)*%
X184810000Y-70190000D03*
%TO.P,U5,12,R2_12*%
%TO.N,Net-(U5-R2)*%
X182270000Y-70190000D03*
%TO.P,U5,13,PHCMPII_13*%
%TO.N,unconnected-(U5-PHCMPII-Pad13)*%
X179730000Y-70190000D03*
%TO.P,U5,14,SIG_IN_14*%
%TO.N,+5V*%
X177190000Y-70190000D03*
%TO.P,U5,15,ZENER_15*%
%TO.N,unconnected-(U5-ZENER-Pad15)*%
X174650000Y-70190000D03*
%TO.P,U5,16,V_{DD}_16*%
%TO.N,+5V*%
X172110000Y-70190000D03*
%TD*%
D34*
%TO.P,TP12,1,1_1*%
%TO.N,/Mixer1/V_{in1}*%
X113000000Y-57070000D03*
%TD*%
D17*
%TO.P,R55,1*%
%TO.N,Net-(C20-Pad1)*%
X137150000Y-60880000D03*
%TO.P,R55,2*%
%TO.N,-12V*%
X137150000Y-62880000D03*
%TD*%
D28*
%TO.P,C14,1*%
%TO.N,Net-(U6-C_{h})*%
X229574633Y-80364084D03*
%TO.P,C14,2*%
%TO.N,GND*%
X229574633Y-82439084D03*
%TD*%
D41*
%TO.N,+12V*%
X215500000Y-69537500D03*
X218500000Y-82500000D03*
X140500000Y-67500000D03*
X190500000Y-125000000D03*
X139000000Y-59500000D03*
X205000000Y-125000000D03*
X218000000Y-78000000D03*
X167500000Y-83500000D03*
X207000000Y-125000000D03*
X194000000Y-126000000D03*
X141500000Y-56500000D03*
X193652500Y-105650000D03*
X187000000Y-123500000D03*
X217500000Y-68500000D03*
X161000000Y-79500000D03*
X194000000Y-117500000D03*
%TO.N,GND*%
X138500000Y-57570000D03*
X198000000Y-137000000D03*
X176520000Y-103980000D03*
X200037133Y-71037500D03*
X157500000Y-57645000D03*
X197074633Y-50537500D03*
X194500000Y-115000000D03*
X145120000Y-127080000D03*
X136500000Y-111000000D03*
X197000000Y-94500000D03*
X143500000Y-57645000D03*
X127650000Y-51380000D03*
X183945403Y-65267185D03*
X129150000Y-73917500D03*
X228000000Y-82537500D03*
X124270000Y-110840000D03*
X116150000Y-75380000D03*
X176690000Y-92650000D03*
X217500000Y-73037500D03*
X222500000Y-80037500D03*
X116270000Y-110877500D03*
X148120000Y-128080000D03*
X173647500Y-66310000D03*
X229000000Y-64537500D03*
X174690000Y-111150000D03*
X150000000Y-106845000D03*
X215500000Y-67462500D03*
X219000000Y-47537500D03*
X211500000Y-80537500D03*
X129150000Y-56342500D03*
X88500000Y-82570000D03*
X198500000Y-105650000D03*
X114082500Y-95080000D03*
X194425000Y-120000000D03*
X120770000Y-110840000D03*
%TO.N,+5V*%
X187000000Y-75000000D03*
X79500000Y-90000000D03*
X183717800Y-71717800D03*
X79000000Y-75000000D03*
X79000000Y-73000000D03*
X79500000Y-107000000D03*
X79500000Y-93500000D03*
%TO.N,-12V*%
X190500000Y-81500000D03*
X215500000Y-75000000D03*
X118500000Y-95000000D03*
X192500000Y-80000000D03*
X116157500Y-95080000D03*
X225000000Y-82000000D03*
X187500000Y-106000000D03*
X169500000Y-85500000D03*
X132000000Y-65500000D03*
X217500000Y-75000000D03*
%TO.N,Net-(RV14-Pad1)*%
X131500000Y-73000000D03*
%TO.N,Net-(Q10-G)*%
X139500000Y-89500000D03*
X120500000Y-90000000D03*
X146275087Y-89225071D03*
%TO.N,Net-(U9A--)*%
X185500000Y-109500000D03*
X192500000Y-109500000D03*
X203000000Y-109000000D03*
X203000000Y-113000000D03*
%TO.N,Net-(D4-K)*%
X144000000Y-115000000D03*
%TO.N,/in*%
X129500000Y-103000000D03*
X119584239Y-92000000D03*
X116500000Y-91000000D03*
X143000000Y-106500000D03*
X131500000Y-105000000D03*
%TO.N,Net-(U10A-+)*%
X193690000Y-94650000D03*
%TO.N,Net-(R32-Pad2)*%
X134500000Y-80000000D03*
X163000000Y-78500000D03*
X122000000Y-84000000D03*
X156500000Y-78000000D03*
X188500000Y-68500000D03*
X172500000Y-74000000D03*
X191000000Y-68500000D03*
X127500000Y-84000000D03*
X114500000Y-84000000D03*
X130000000Y-84000000D03*
X145208121Y-77798236D03*
X170500000Y-74000000D03*
%TO.N,Net-(U2B--)*%
X215500000Y-62000000D03*
%TO.N,Net-(R31-Pad2)*%
X142500000Y-72500000D03*
X124500000Y-79000000D03*
X159000000Y-74500000D03*
X161500000Y-74500000D03*
X112500000Y-79500000D03*
X131500000Y-75500000D03*
X118000000Y-79500000D03*
X139500000Y-73000000D03*
X132500000Y-73500000D03*
X122500000Y-79500000D03*
%TO.N,Net-(Q1-D)*%
X152000000Y-112000000D03*
X154000000Y-108920000D03*
X144000000Y-113000000D03*
%TO.N,Net-(Q16-D)*%
X162713712Y-100743382D03*
X162675138Y-118404527D03*
X162716908Y-123088752D03*
%TO.N,Net-(U2A-+)*%
X219000000Y-70037500D03*
%TO.N,Net-(C19-Pad2)*%
X121650000Y-73880000D03*
X125150000Y-73880000D03*
%TO.N,Net-(C30-Pad1)*%
X184690000Y-115150000D03*
X183000000Y-112500000D03*
%TO.N,Net-(D7-A)*%
X138000000Y-121500000D03*
%TO.N,Net-(J5-T)*%
X81000000Y-65000000D03*
X83500000Y-65500000D03*
%TO.N,Net-(J8-T)*%
X157500000Y-117000000D03*
X163500000Y-91000000D03*
X195500000Y-84000000D03*
X158500000Y-105000000D03*
X161500000Y-92000000D03*
X102000000Y-132000000D03*
X158500000Y-115500000D03*
X193500000Y-85000000D03*
X158500000Y-102000000D03*
%TO.N,Net-(R6-Pad1)*%
X120500000Y-86000000D03*
X127000000Y-91500000D03*
X102000000Y-58000000D03*
X98000000Y-54000000D03*
%TO.N,Net-(U4-IN)*%
X196000000Y-57500000D03*
X177500000Y-72500000D03*
X178500000Y-68500000D03*
X198500000Y-55000000D03*
X187500000Y-62000000D03*
X189000000Y-61000000D03*
%TO.N,Net-(R11-Pad1)*%
X122500000Y-109000000D03*
X122500000Y-110500000D03*
%TO.N,Net-(R34-Pad2)*%
X118000000Y-66500000D03*
X110500000Y-75500000D03*
X113500000Y-74500000D03*
X185500000Y-54000000D03*
X191500000Y-62000000D03*
X190000000Y-60000000D03*
X183000000Y-54000000D03*
X121500000Y-65000000D03*
%TO.N,Net-(R42-Pad2)*%
X186500000Y-50000000D03*
X188000000Y-51500000D03*
%TO.N,Net-(U7A--)*%
X132150000Y-53880000D03*
X133000000Y-67500000D03*
%TO.N,Net-(U4-OUT1)*%
X220000000Y-56037500D03*
X223500000Y-58537500D03*
%TO.N,Net-(U2B-+)*%
X227500000Y-75037500D03*
%TO.N,/Mixer1/V_{ctrl}*%
X107000000Y-66500000D03*
X123000000Y-64500000D03*
X117500000Y-65500000D03*
X134000000Y-64500000D03*
X109500000Y-66500000D03*
%TO.N,/Mixer1/V_{in1}*%
X142000000Y-97500000D03*
X139500000Y-91500000D03*
X96500000Y-55000000D03*
X120000000Y-72500000D03*
X99000000Y-56000000D03*
X137500000Y-89000000D03*
X120000000Y-75000000D03*
%TO.N,/Mixer1/V_{in2}*%
X161500000Y-87500000D03*
X96000000Y-101500000D03*
X141000000Y-92000000D03*
X125370201Y-75395949D03*
X199000000Y-87500000D03*
X136000000Y-89000000D03*
X117500000Y-90000000D03*
X197000000Y-89500000D03*
X87500000Y-124500000D03*
X168500000Y-87500000D03*
X88500000Y-122500000D03*
X124000000Y-80500000D03*
X94500000Y-106500000D03*
X122500000Y-85500000D03*
%TO.N,/Mixer2/V_{ctrl}*%
X89500000Y-124500000D03*
X177000000Y-124000000D03*
X90500000Y-132000000D03*
X160500000Y-131000000D03*
X90000000Y-130000000D03*
X179000000Y-123000000D03*
X191000000Y-126500000D03*
X167500000Y-131000000D03*
X89500000Y-121570000D03*
%TO.N,/Mixer2/V_{in2}*%
X131000000Y-123500000D03*
X141500000Y-114500000D03*
X142500000Y-111000000D03*
X137000000Y-118500000D03*
%TO.N,/Mixer1/V_{out}*%
X183500000Y-53000000D03*
X186500000Y-53000000D03*
%TO.N,/Mixer2/V_{out}*%
X204000000Y-135500000D03*
X206000000Y-133000000D03*
%TD*%
%TO.N,Net-(J10-T)*%
D42*
X105500000Y-40500000D02*
X99500000Y-40500000D01*
%TO.N,Net-(R42-Pad2)*%
X186500000Y-50000000D02*
X177000000Y-40500000D01*
X177000000Y-40500000D02*
X107500000Y-40500000D01*
%TO.N,Net-(U8C-DIODE_BIAS)*%
X119150000Y-70880000D02*
X118150000Y-71880000D01*
X119150000Y-68880000D02*
X119150000Y-70880000D01*
%TO.N,+12V*%
D43*
X232230000Y-124384633D02*
X234770000Y-124384633D01*
X116270000Y-108802500D02*
X116270000Y-105930000D01*
X221313416Y-125374633D02*
X222315849Y-124372200D01*
X183500000Y-121000000D02*
X183500000Y-119000000D01*
X145000000Y-112000000D02*
X142500000Y-112000000D01*
X193340000Y-102000000D02*
X193690000Y-101650000D01*
X189282200Y-95182850D02*
X189282200Y-101197150D01*
X117437800Y-104762200D02*
X116310000Y-105890000D01*
X191500000Y-126000000D02*
X194000000Y-126000000D01*
X127073740Y-111767800D02*
X126500000Y-111194060D01*
X121540000Y-85040000D02*
X121540000Y-88020000D01*
X190500000Y-125000000D02*
X191500000Y-126000000D01*
X128466260Y-111767800D02*
X127073740Y-111767800D01*
X220085616Y-124146833D02*
X207853167Y-124146833D01*
X191392750Y-94522200D02*
X189942850Y-94522200D01*
X189282200Y-101197150D02*
X190085050Y-102000000D01*
X222315849Y-124372200D02*
X226102200Y-124372200D01*
X170550000Y-94540000D02*
X175867800Y-89222200D01*
X193690000Y-101650000D02*
X193690000Y-105612500D01*
X160570000Y-79070000D02*
X161000000Y-79500000D01*
X196420000Y-121080000D02*
X196420000Y-123000000D01*
X216572200Y-75609700D02*
X217500000Y-76537500D01*
X117077800Y-72807800D02*
X117077800Y-80557800D01*
X170550000Y-94540000D02*
X167550000Y-94540000D01*
X221769633Y-67629084D02*
X220898717Y-68500000D01*
X145000000Y-116500000D02*
X145000000Y-112000000D01*
X129150000Y-58417500D02*
X128582500Y-58417500D01*
X140500000Y-76560000D02*
X140500000Y-67500000D01*
X185500000Y-90335940D02*
X185500000Y-91982200D01*
X193690000Y-105612500D02*
X193652500Y-105650000D01*
X180857800Y-91982200D02*
X185500000Y-91982200D01*
X185500000Y-91982200D02*
X191677150Y-91982200D01*
X184761860Y-121027800D02*
X183527800Y-121027800D01*
X205000000Y-125000000D02*
X198420000Y-125000000D01*
X145667800Y-105332200D02*
X142000000Y-109000000D01*
X136500000Y-108920000D02*
X135412200Y-110007800D01*
X136500000Y-108920000D02*
X139420000Y-108920000D01*
X180190000Y-92650000D02*
X180857800Y-91982200D01*
X213040000Y-69537500D02*
X212620000Y-69957500D01*
X187000000Y-123265940D02*
X184761860Y-121027800D01*
X217500000Y-77500000D02*
X218000000Y-78000000D01*
X167550000Y-94540000D02*
X164050000Y-98040000D01*
X146500000Y-55650000D02*
X143580000Y-55650000D01*
X215500000Y-69537500D02*
X216572200Y-70609700D01*
X220898717Y-68500000D02*
X217500000Y-68500000D01*
X192337800Y-93577150D02*
X191392750Y-94522200D01*
X198420000Y-125000000D02*
X196420000Y-123000000D01*
X126842200Y-109767800D02*
X126500000Y-109767800D01*
X227230000Y-125500000D02*
X231114633Y-125500000D01*
X131035000Y-59535000D02*
X129310000Y-61260000D01*
X217500000Y-76537500D02*
X217500000Y-77500000D01*
X117437800Y-92122200D02*
X117437800Y-104762200D01*
X131070000Y-59500000D02*
X131035000Y-59535000D01*
X143120000Y-118380000D02*
X145000000Y-116500000D01*
X196500000Y-120000000D02*
X194000000Y-117500000D01*
X118040000Y-81540000D02*
X121540000Y-85040000D01*
X156167800Y-105332200D02*
X145667800Y-105332200D01*
X116270000Y-105930000D02*
X116310000Y-105890000D01*
X131035000Y-59535000D02*
X129917500Y-58417500D01*
X139000000Y-59500000D02*
X131070000Y-59500000D01*
X218500000Y-82500000D02*
X235923300Y-99923300D01*
X187000000Y-123500000D02*
X187000000Y-123265940D01*
X189942850Y-94522200D02*
X189282200Y-95182850D01*
X143580000Y-55650000D02*
X143500000Y-55570000D01*
X142430000Y-55570000D02*
X141500000Y-56500000D01*
X121540000Y-88020000D02*
X117437800Y-92122200D01*
X117235300Y-109767800D02*
X116270000Y-108802500D01*
X196500000Y-121000000D02*
X196420000Y-121080000D01*
X190085050Y-102000000D02*
X193340000Y-102000000D01*
X174640200Y-117869800D02*
X172960000Y-119550000D01*
X135412200Y-110007800D02*
X130226260Y-110007800D01*
X183500000Y-119000000D02*
X182369800Y-117869800D01*
X215500000Y-69537500D02*
X213040000Y-69537500D01*
X117077800Y-80557800D02*
X118040000Y-81520000D01*
X235923300Y-123231333D02*
X234770000Y-124384633D01*
X191677150Y-91982200D02*
X192337800Y-92642850D01*
X235923300Y-99923300D02*
X235923300Y-123231333D01*
X219534633Y-65394084D02*
X221769633Y-67629084D01*
X126500000Y-111194060D02*
X126500000Y-109767800D01*
X207853167Y-124146833D02*
X207000000Y-125000000D01*
X219534633Y-62439084D02*
X219534633Y-65394084D01*
X116150000Y-71880000D02*
X117077800Y-72807800D01*
X143120000Y-122580000D02*
X143120000Y-118380000D01*
X190970000Y-105650000D02*
X190810000Y-105810000D01*
X143050000Y-79110000D02*
X140500000Y-76560000D01*
X126500000Y-109767800D02*
X117235300Y-109767800D01*
X196500000Y-120000000D02*
X196500000Y-121000000D01*
X118040000Y-81520000D02*
X118040000Y-81540000D01*
X129917500Y-58417500D02*
X129150000Y-58417500D01*
X139420000Y-108920000D02*
X139500000Y-109000000D01*
X163460000Y-98040000D02*
X156167800Y-105332200D01*
X221313416Y-125374633D02*
X220085616Y-124146833D01*
X128582500Y-58417500D02*
X128545000Y-58380000D01*
X142500000Y-112000000D02*
X139500000Y-109000000D01*
X182369800Y-117869800D02*
X174640200Y-117869800D01*
X162500000Y-88500000D02*
X162500000Y-96490000D01*
X175867800Y-89222200D02*
X184386260Y-89222200D01*
X184386260Y-89222200D02*
X185500000Y-90335940D01*
X130226260Y-110007800D02*
X128466260Y-111767800D01*
X192337800Y-92642850D02*
X192337800Y-93577150D01*
X231114633Y-125500000D02*
X232230000Y-124384633D01*
X142000000Y-109000000D02*
X139500000Y-109000000D01*
X216572200Y-70609700D02*
X216572200Y-75609700D01*
X164050000Y-98040000D02*
X163460000Y-98040000D01*
X127770000Y-108840000D02*
X126842200Y-109767800D01*
X193652500Y-105650000D02*
X190970000Y-105650000D01*
X128545000Y-58380000D02*
X125150000Y-58380000D01*
X143500000Y-55570000D02*
X142430000Y-55570000D01*
X167500000Y-83500000D02*
X162500000Y-88500000D01*
X183527800Y-121027800D02*
X183500000Y-121000000D01*
X226102200Y-124372200D02*
X227230000Y-125500000D01*
X151000000Y-79070000D02*
X160570000Y-79070000D01*
X162500000Y-96490000D02*
X164050000Y-98040000D01*
%TO.N,Net-(U10A--)*%
D42*
X190867800Y-100672200D02*
X190810000Y-100730000D01*
X198690000Y-104150000D02*
X196672572Y-104150000D01*
X196672572Y-104150000D02*
X194567800Y-102045228D01*
X194265548Y-100672200D02*
X190867800Y-100672200D01*
X194567800Y-102045228D02*
X194567800Y-100974452D01*
X194567800Y-100974452D02*
X194265548Y-100672200D01*
%TO.N,GND*%
D43*
X228098416Y-82439084D02*
X228000000Y-82537500D01*
X116622200Y-51848740D02*
X117400940Y-51070000D01*
X153925000Y-106845000D02*
X154000000Y-106920000D01*
X118150000Y-56380000D02*
X116622200Y-54852200D01*
X182190000Y-65310000D02*
X185610000Y-65310000D01*
X229574633Y-82439084D02*
X228098416Y-82439084D01*
X122460000Y-51070000D02*
X119920000Y-51070000D01*
X116622200Y-54852200D02*
X116622200Y-51848740D01*
X198000000Y-138000000D02*
X198000000Y-137000000D01*
X129650000Y-79300000D02*
X129650000Y-81840000D01*
X200037133Y-69439084D02*
X200037133Y-71037500D01*
X199190000Y-105650000D02*
X198500000Y-105650000D01*
X197074633Y-52401584D02*
X197074633Y-50537500D01*
X117400940Y-51070000D02*
X119920000Y-51070000D01*
X176520000Y-103980000D02*
X174690000Y-102150000D01*
X136500000Y-110995000D02*
X136500000Y-111000000D01*
X125650000Y-77380000D02*
X127730000Y-77380000D01*
X221500000Y-80037500D02*
X222500000Y-80037500D01*
X200037133Y-71037500D02*
X200037133Y-72901951D01*
X161500000Y-54070000D02*
X161075000Y-54070000D01*
X127730000Y-77380000D02*
X129650000Y-79300000D01*
X152000000Y-106845000D02*
X153925000Y-106845000D01*
X132730000Y-79300000D02*
X134650000Y-77380000D01*
X228901584Y-64439084D02*
X229000000Y-64537500D01*
X194425000Y-131165000D02*
X193880000Y-130620000D01*
X194425000Y-134000000D02*
X194425000Y-131165000D01*
X178152500Y-105650000D02*
X178152500Y-105612500D01*
X218901584Y-47439084D02*
X219000000Y-47537500D01*
X200690000Y-104150000D02*
X199190000Y-105650000D01*
X178152500Y-105612500D02*
X176520000Y-103980000D01*
X200037133Y-72901951D02*
X200000000Y-72939084D01*
X129650000Y-79300000D02*
X132730000Y-79300000D01*
X197194633Y-50337500D02*
X197194633Y-48239084D01*
X217112133Y-47439084D02*
X218901584Y-47439084D01*
X161075000Y-54070000D02*
X157500000Y-57645000D01*
X227574633Y-64439084D02*
X228901584Y-64439084D01*
X195690000Y-94650000D02*
X196850000Y-94650000D01*
X150000000Y-106845000D02*
X152000000Y-106845000D01*
X198500000Y-105650000D02*
X195727500Y-105650000D01*
X196850000Y-94650000D02*
X197000000Y-94500000D01*
%TO.N,Net-(J4-P1)*%
D42*
X232230000Y-116764633D02*
X234770000Y-116764633D01*
%TO.N,Net-(J4-P3)*%
X234770000Y-119304633D02*
X232230000Y-119304633D01*
%TO.N,+5V*%
D43*
X215037133Y-49971584D02*
X215194633Y-50129084D01*
X173637800Y-71717800D02*
X172110000Y-70190000D01*
X78222200Y-84543561D02*
X78853561Y-83912200D01*
X171572500Y-69572500D02*
X171572500Y-66310000D01*
X79000000Y-83912200D02*
X79000000Y-75000000D01*
X192598716Y-45511284D02*
X186555000Y-51555000D01*
X201146833Y-45511284D02*
X192598716Y-45511284D01*
X177190000Y-70190000D02*
X178717800Y-71717800D01*
X204164433Y-45349284D02*
X212947333Y-45349284D01*
X227230000Y-117000000D02*
X227385367Y-117000000D01*
X178300000Y-59810000D02*
X178300000Y-66200000D01*
X178717800Y-71717800D02*
X183717800Y-71717800D01*
X79500000Y-90000000D02*
X79000000Y-89500000D01*
X79500000Y-72500000D02*
X79500000Y-68070000D01*
X172110000Y-70190000D02*
X172110000Y-70110000D01*
X227230000Y-117000000D02*
X226102200Y-115872200D01*
X177190000Y-70190000D02*
X175662200Y-71717800D01*
X177190000Y-67310000D02*
X177190000Y-70190000D01*
X234770000Y-121844633D02*
X232230000Y-121844633D01*
X226102200Y-115872200D02*
X222815849Y-115872200D01*
X188477800Y-78477800D02*
X221313416Y-111313416D01*
X176000000Y-41000000D02*
X112477793Y-41000000D01*
X94977793Y-58500000D02*
X91500000Y-58500000D01*
X79493947Y-107006053D02*
X79500000Y-107000000D01*
X186555000Y-51555000D02*
X178300000Y-59810000D01*
X215037133Y-47439084D02*
X215037133Y-49971584D01*
X172110000Y-70110000D02*
X171572500Y-69572500D01*
X212947333Y-45349284D02*
X215037133Y-47439084D01*
X202574633Y-46939084D02*
X201146833Y-45511284D01*
X79000000Y-86067800D02*
X78853561Y-86067800D01*
X79493947Y-120490000D02*
X79493947Y-107006053D01*
X178300000Y-66200000D02*
X177190000Y-67310000D01*
X86500000Y-63500000D02*
X84070000Y-63500000D01*
X78853561Y-86067800D02*
X78222200Y-85436439D01*
X186555000Y-51555000D02*
X176000000Y-41000000D01*
X222815849Y-115872200D02*
X221313416Y-117374633D01*
X78853561Y-83912200D02*
X79000000Y-83912200D01*
X175662200Y-71717800D02*
X173637800Y-71717800D01*
X91500000Y-58500000D02*
X86500000Y-63500000D01*
X112477793Y-41000000D02*
X94977793Y-58500000D01*
X188477800Y-76477800D02*
X188477800Y-78477800D01*
X84070000Y-63500000D02*
X79500000Y-68070000D01*
X221313416Y-111313416D02*
X221313416Y-117374633D01*
X187000000Y-75000000D02*
X188477800Y-76477800D01*
X79500000Y-103570000D02*
X79500000Y-93500000D01*
X227385367Y-117000000D02*
X232230000Y-121844633D01*
X79000000Y-73000000D02*
X79500000Y-72500000D01*
X79000000Y-89500000D02*
X79000000Y-86067800D01*
X202574633Y-46939084D02*
X204164433Y-45349284D01*
X78222200Y-85436439D02*
X78222200Y-84543561D01*
%TO.N,-12V*%
X129310000Y-68880000D02*
X129310000Y-71682500D01*
X236401100Y-93401100D02*
X225000000Y-82000000D01*
X154120000Y-55650000D02*
X150167800Y-59602200D01*
X139000000Y-62880000D02*
X138650000Y-63230000D01*
X150000000Y-108920000D02*
X150725000Y-108920000D01*
X166500000Y-121000000D02*
X166500000Y-114447400D01*
X201072200Y-72242824D02*
X203357524Y-69957500D01*
X134000000Y-65500000D02*
X136620000Y-62880000D01*
X179174700Y-106702800D02*
X180227500Y-105650000D01*
X180227500Y-105650000D02*
X183030000Y-105650000D01*
X236401100Y-132913533D02*
X236401100Y-93401100D01*
X142500000Y-62500000D02*
X141030000Y-62500000D01*
X227319775Y-133374633D02*
X231060000Y-133374633D01*
X187500000Y-106000000D02*
X189190000Y-107690000D01*
X193512200Y-121472200D02*
X194347150Y-121472200D01*
X226191975Y-132246833D02*
X222441216Y-132246833D01*
X150000000Y-108920000D02*
X147200000Y-108920000D01*
X177344613Y-106702800D02*
X179174700Y-106702800D01*
X116157500Y-98117500D02*
X116310000Y-98270000D01*
X147420000Y-132580000D02*
X160327800Y-119672200D01*
X137947400Y-85570000D02*
X135722200Y-83344800D01*
X186500000Y-85500000D02*
X169500000Y-85500000D01*
X190500000Y-81500000D02*
X186500000Y-85500000D01*
X134000000Y-65500000D02*
X132000000Y-65500000D01*
X189190000Y-117150000D02*
X193512200Y-121472200D01*
X214135344Y-73635344D02*
X202927800Y-73635344D01*
X144500000Y-85570000D02*
X135972200Y-94097800D01*
X150725000Y-108920000D02*
X161477200Y-119672200D01*
X210853167Y-132146833D02*
X220085616Y-132146833D01*
X187190000Y-115150000D02*
X189190000Y-117150000D01*
X196420000Y-130620000D02*
X196420000Y-133920000D01*
X140650000Y-62880000D02*
X139000000Y-62880000D01*
X116157500Y-95080000D02*
X116157500Y-98117500D01*
X220085616Y-132146833D02*
X221313416Y-133374633D01*
X135972200Y-94097800D02*
X135972200Y-103392200D01*
X202927800Y-73635344D02*
X202596260Y-73966884D01*
X133894060Y-75000000D02*
X132307500Y-75000000D01*
X136620000Y-62880000D02*
X137150000Y-62880000D01*
X132796600Y-90922200D02*
X135972200Y-94097800D01*
X175744013Y-105102200D02*
X177344613Y-106702800D01*
X165172200Y-119672200D02*
X166500000Y-121000000D01*
X202112133Y-69439084D02*
X204481584Y-69439084D01*
X129310000Y-71682500D02*
X129150000Y-71842500D01*
X135972200Y-103392200D02*
X137000000Y-104420000D01*
X139000000Y-62880000D02*
X137150000Y-62880000D01*
X189190000Y-107690000D02*
X189190000Y-113650000D01*
X135722200Y-83344800D02*
X135722200Y-76828140D01*
X161477200Y-119672200D02*
X165172200Y-119672200D01*
X157040000Y-85530000D02*
X159500000Y-83070000D01*
X157420000Y-55650000D02*
X157500000Y-55570000D01*
X189190000Y-113650000D02*
X189190000Y-117150000D01*
X166540000Y-129450000D02*
X166540000Y-133540000D01*
X192500000Y-75339657D02*
X192500000Y-80000000D01*
X166500000Y-114447400D02*
X174262200Y-106685200D01*
X147200000Y-108920000D02*
X147120000Y-109000000D01*
X201072200Y-73635344D02*
X201072200Y-72242824D01*
X217749084Y-75249084D02*
X217500000Y-75000000D01*
X195007800Y-122132850D02*
X195007800Y-129207800D01*
X231060000Y-133374633D02*
X232230000Y-134544633D01*
X195007800Y-129207800D02*
X196420000Y-130620000D01*
X202596260Y-73966884D02*
X201403740Y-73966884D01*
X174262200Y-105715987D02*
X174875987Y-105102200D01*
X215500000Y-75000000D02*
X214135344Y-73635344D01*
X166540000Y-133540000D02*
X169000000Y-136000000D01*
X201059333Y-68386284D02*
X199453373Y-68386284D01*
X174262200Y-106685200D02*
X174262200Y-105715987D01*
X186690000Y-115150000D02*
X187190000Y-115150000D01*
X199453373Y-68386284D02*
X192500000Y-75339657D01*
X203357524Y-69957500D02*
X205000000Y-69957500D01*
X118500000Y-95000000D02*
X118500000Y-92267106D01*
X201403740Y-73966884D02*
X201072200Y-73635344D01*
X150167800Y-59602200D02*
X145397800Y-59602200D01*
X204481584Y-69439084D02*
X205000000Y-69957500D01*
X209000000Y-134000000D02*
X210853167Y-132146833D01*
X234770000Y-134544633D02*
X236401100Y-132913533D01*
X221769633Y-75249084D02*
X217749084Y-75249084D01*
X222441216Y-132246833D02*
X221313416Y-133374633D01*
X183030000Y-105650000D02*
X183190000Y-105810000D01*
X135722200Y-76828140D02*
X133894060Y-75000000D01*
X152950000Y-85530000D02*
X157040000Y-85530000D01*
X196500000Y-134000000D02*
X209000000Y-134000000D01*
X202112133Y-69439084D02*
X201059333Y-68386284D01*
X196420000Y-133920000D02*
X196500000Y-134000000D01*
X138650000Y-63230000D02*
X138650000Y-65380000D01*
X119844906Y-90922200D02*
X132796600Y-90922200D01*
X174875987Y-105102200D02*
X175744013Y-105102200D01*
X118500000Y-92267106D02*
X119844906Y-90922200D01*
X160327800Y-119672200D02*
X161477200Y-119672200D01*
X145120000Y-132580000D02*
X147420000Y-132580000D01*
X227319775Y-133374633D02*
X226191975Y-132246833D01*
X141030000Y-62500000D02*
X140650000Y-62880000D01*
X145397800Y-59602200D02*
X142500000Y-62500000D01*
X144500000Y-85570000D02*
X137947400Y-85570000D01*
X154120000Y-55650000D02*
X157420000Y-55650000D01*
X232230000Y-134544633D02*
X234770000Y-134544633D01*
X132307500Y-75000000D02*
X129150000Y-71842500D01*
X194347150Y-121472200D02*
X195007800Y-122132850D01*
%TO.N,Net-(Q6-D)*%
D42*
X144327800Y-77847800D02*
X144327800Y-79447800D01*
X144327800Y-79447800D02*
X152950000Y-88070000D01*
X143050000Y-76570000D02*
X141797600Y-75317600D01*
X141797600Y-75317600D02*
X141797600Y-71272400D01*
X143050000Y-76570000D02*
X144327800Y-77847800D01*
X141797600Y-71272400D02*
X143500000Y-69570000D01*
%TO.N,Net-(Q3-D)*%
X144500000Y-90650000D02*
X152910000Y-90650000D01*
X152950000Y-90610000D02*
X157040000Y-90610000D01*
X162000000Y-80490000D02*
X164580000Y-83070000D01*
X157040000Y-90610000D02*
X164580000Y-83070000D01*
X144500000Y-88110000D02*
X144500000Y-90650000D01*
X152910000Y-90650000D02*
X152950000Y-90610000D01*
X162000000Y-76520000D02*
X162000000Y-80490000D01*
%TO.N,Net-(U8C-+)*%
X118150000Y-75380000D02*
X121650000Y-71880000D01*
X121650000Y-71880000D02*
X121650000Y-68920000D01*
X121650000Y-68920000D02*
X121690000Y-68880000D01*
%TO.N,Net-(RV14-Pad1)*%
X131850000Y-72650000D02*
X131500000Y-73000000D01*
X130372200Y-67402200D02*
X131850000Y-68880000D01*
X131850000Y-68880000D02*
X131850000Y-72650000D01*
X126770000Y-68880000D02*
X128247800Y-67402200D01*
X128247800Y-67402200D02*
X130372200Y-67402200D01*
%TO.N,Net-(Q10-G)*%
X116460000Y-88020000D02*
X119000000Y-88020000D01*
X116460000Y-85020000D02*
X112960000Y-81520000D01*
X116460000Y-88020000D02*
X116460000Y-85020000D01*
X139000000Y-90000000D02*
X120500000Y-90000000D01*
X139500000Y-89500000D02*
X139000000Y-90000000D01*
X146324916Y-89274900D02*
X146275087Y-89225071D01*
X155835100Y-89274900D02*
X146324916Y-89274900D01*
X162040000Y-83070000D02*
X155835100Y-89274900D01*
%TO.N,Net-(D8-A)*%
X142430000Y-130580000D02*
X145120000Y-130580000D01*
X145120000Y-130580000D02*
X147620000Y-130580000D01*
X147620000Y-130580000D02*
X148120000Y-130080000D01*
%TO.N,Net-(Q3-S)*%
X161500000Y-56070000D02*
X161500000Y-60570000D01*
X164540000Y-76520000D02*
X166514400Y-74545600D01*
X166514400Y-74545600D02*
X166514400Y-61182600D01*
X166514400Y-61182600D02*
X165901800Y-60570000D01*
X165901800Y-60570000D02*
X161500000Y-60570000D01*
%TO.N,Net-(U1A--)*%
X137500000Y-101000000D02*
X137500000Y-98420000D01*
X120654800Y-104085200D02*
X118850000Y-105890000D01*
X134665200Y-104085200D02*
X120654800Y-104085200D01*
X137920000Y-105500000D02*
X139500000Y-103920000D01*
X135000000Y-104420000D02*
X136080000Y-105500000D01*
X139000000Y-103920000D02*
X137000000Y-101920000D01*
X137000000Y-101920000D02*
X137000000Y-101500000D01*
X137000000Y-101500000D02*
X137500000Y-101000000D01*
X135000000Y-104420000D02*
X134665200Y-104085200D01*
X136080000Y-105500000D02*
X137920000Y-105500000D01*
X139500000Y-103920000D02*
X139000000Y-103920000D01*
%TO.N,Net-(R36-Pad1)*%
X87472200Y-69097800D02*
X87500000Y-69070000D01*
X83027800Y-69097800D02*
X87472200Y-69097800D01*
X82000000Y-68070000D02*
X83027800Y-69097800D01*
%TO.N,Net-(U9A--)*%
X192500000Y-109500000D02*
X197340000Y-109500000D01*
X180190000Y-110650000D02*
X181340000Y-109500000D01*
X201690000Y-108650000D02*
X198190000Y-108650000D01*
X197340000Y-109500000D02*
X198190000Y-108650000D01*
X181340000Y-109500000D02*
X185500000Y-109500000D01*
X203000000Y-113000000D02*
X203000000Y-121500000D01*
X202650000Y-108650000D02*
X203000000Y-109000000D01*
X203000000Y-121500000D02*
X201500000Y-123000000D01*
X201690000Y-108650000D02*
X202650000Y-108650000D01*
%TO.N,Net-(U10C-+)*%
X176690000Y-94650000D02*
X177650000Y-94650000D01*
X180190000Y-97190000D02*
X180190000Y-98150000D01*
X180190000Y-98150000D02*
X183150000Y-98150000D01*
X183150000Y-98150000D02*
X183190000Y-98190000D01*
X177650000Y-94650000D02*
X180190000Y-97190000D01*
%TO.N,Net-(Q11-D)*%
X178080000Y-127500000D02*
X175540000Y-127500000D01*
X178040000Y-119550000D02*
X178040000Y-127460000D01*
X178080000Y-132490000D02*
X178080000Y-127500000D01*
X183550000Y-137960000D02*
X178080000Y-132490000D01*
X178040000Y-127460000D02*
X178080000Y-127500000D01*
%TO.N,Net-(Q15-D)*%
X180797600Y-118297600D02*
X176752400Y-118297600D01*
X182500000Y-120000000D02*
X180797600Y-118297600D01*
X166877800Y-128172200D02*
X175500000Y-119550000D01*
X165277800Y-128172200D02*
X166877800Y-128172200D01*
X164000000Y-129450000D02*
X165277800Y-128172200D01*
X176752400Y-118297600D02*
X175500000Y-119550000D01*
%TO.N,Net-(U8C--)*%
X124230000Y-68880000D02*
X123650000Y-69460000D01*
X123650000Y-69460000D02*
X123650000Y-77380000D01*
%TO.N,Net-(U10A-DIODE_BIAS)*%
X192707428Y-95650000D02*
X194542400Y-97484972D01*
X195690000Y-100950000D02*
X195690000Y-101650000D01*
X194542400Y-97484972D02*
X194542400Y-99802400D01*
X194542400Y-99802400D02*
X195690000Y-100950000D01*
X190810000Y-95650000D02*
X192707428Y-95650000D01*
%TO.N,Net-(R37-Pad1)*%
X92000000Y-69070000D02*
X92952400Y-70022400D01*
X97547600Y-70022400D02*
X99500000Y-68070000D01*
X92952400Y-70022400D02*
X97547600Y-70022400D01*
%TO.N,Net-(D4-K)*%
X150500000Y-112420000D02*
X150000000Y-111920000D01*
X94915207Y-105497600D02*
X94000000Y-105497600D01*
X139500000Y-119500000D02*
X133101800Y-119500000D01*
X147650000Y-114610000D02*
X147120000Y-114080000D01*
X133101800Y-119500000D02*
X130634400Y-121967400D01*
X130634400Y-121967400D02*
X126874700Y-121967400D01*
X119134400Y-122967400D02*
X111467400Y-122967400D01*
X125322400Y-120415100D02*
X121686700Y-120415100D01*
X150500000Y-114610000D02*
X147650000Y-114610000D01*
X94000000Y-105497600D02*
X94000000Y-104570000D01*
X144000000Y-115000000D02*
X139500000Y-119500000D01*
X121686700Y-120415100D02*
X119134400Y-122967400D01*
X150500000Y-114610000D02*
X150500000Y-112420000D01*
X93047600Y-105522400D02*
X94000000Y-104570000D01*
X90452400Y-105522400D02*
X93047600Y-105522400D01*
X111467400Y-122967400D02*
X97352400Y-108852400D01*
X97352400Y-107934792D02*
X94915207Y-105497600D01*
X126874700Y-121967400D02*
X125322400Y-120415100D01*
X89500000Y-104570000D02*
X90452400Y-105522400D01*
X97352400Y-108852400D02*
X97352400Y-107934792D01*
%TO.N,Net-(U2A--)*%
X213000000Y-75037500D02*
X214500000Y-76537500D01*
X213362572Y-80537500D02*
X211167600Y-78342528D01*
X214500000Y-76537500D02*
X215500000Y-76537500D01*
X213500000Y-80537500D02*
X213362572Y-80537500D01*
X212620000Y-75037500D02*
X213000000Y-75037500D01*
X211167600Y-78342528D02*
X211167600Y-76489900D01*
X211167600Y-76489900D02*
X212620000Y-75037500D01*
%TO.N,/in*%
X129275761Y-103000000D02*
X129500000Y-103000000D01*
X119584239Y-92000000D02*
X125007800Y-97423561D01*
X143000000Y-106500000D02*
X141577800Y-107922200D01*
X125007800Y-98732039D02*
X129275761Y-103000000D01*
X134422200Y-107922200D02*
X131500000Y-105000000D01*
X62022200Y-74522200D02*
X62022200Y-41977800D01*
X116500000Y-91000000D02*
X78500000Y-91000000D01*
X62022200Y-41977800D02*
X63500000Y-40500000D01*
X141577800Y-107922200D02*
X134422200Y-107922200D01*
X78500000Y-91000000D02*
X62022200Y-74522200D01*
X125007800Y-97423561D02*
X125007800Y-98732039D01*
%TO.N,Net-(U8A-+)*%
X121690000Y-61260000D02*
X120237600Y-62712400D01*
X118714082Y-62712400D02*
X117662400Y-61660718D01*
X121690000Y-61260000D02*
X121690000Y-58420000D01*
X117662400Y-58867600D02*
X118150000Y-58380000D01*
X121690000Y-58420000D02*
X121650000Y-58380000D01*
X120237600Y-62712400D02*
X118714082Y-62712400D01*
X117662400Y-61660718D02*
X117662400Y-58867600D01*
%TO.N,Net-(Q11-G)*%
X183447600Y-135317600D02*
X183550000Y-135420000D01*
X188800000Y-123000000D02*
X183447600Y-128352400D01*
X183447600Y-128352400D02*
X183447600Y-135317600D01*
%TO.N,Net-(Q11-S)*%
X183550000Y-140500000D02*
X188500000Y-140500000D01*
X188647600Y-136977400D02*
X188647600Y-140647600D01*
X188500000Y-140500000D02*
X188647600Y-140647600D01*
X188647600Y-140647600D02*
X190000000Y-142000000D01*
X191340000Y-123000000D02*
X189852400Y-124487600D01*
X189852400Y-124487600D02*
X189852400Y-135772600D01*
X189852400Y-135772600D02*
X188647600Y-136977400D01*
%TO.N,Net-(Q2-S)*%
X159090172Y-59677600D02*
X151322400Y-59677600D01*
X165500000Y-67020000D02*
X164000000Y-68520000D01*
X151322400Y-59677600D02*
X150270000Y-60730000D01*
X150270000Y-60730000D02*
X146500000Y-60730000D01*
X165500000Y-62070000D02*
X164930000Y-61500000D01*
X164930000Y-61500000D02*
X160912572Y-61500000D01*
X160912572Y-61500000D02*
X159090172Y-59677600D01*
X165500000Y-62070000D02*
X165500000Y-67020000D01*
%TO.N,Net-(U8A--)*%
X127650000Y-55397428D02*
X125545228Y-57502200D01*
X124474452Y-57502200D02*
X124172200Y-57804452D01*
X124172200Y-61202200D02*
X124230000Y-61260000D01*
X127650000Y-53380000D02*
X127650000Y-55397428D01*
X124172200Y-57804452D02*
X124172200Y-61202200D01*
X125545228Y-57502200D02*
X124474452Y-57502200D01*
%TO.N,Net-(U10A-+)*%
X193690000Y-98150000D02*
X190850000Y-98150000D01*
X190850000Y-98150000D02*
X190810000Y-98190000D01*
%TO.N,Net-(RV17-Pad1)*%
X177510000Y-108350000D02*
X183190000Y-108350000D01*
X184667800Y-104747800D02*
X183190000Y-103270000D01*
X183190000Y-108350000D02*
X184667800Y-106872200D01*
X175310000Y-106150000D02*
X177510000Y-108350000D01*
X184667800Y-106872200D02*
X184667800Y-104747800D01*
%TO.N,Net-(R3-Pad1)*%
X98497600Y-104572400D02*
X95519828Y-104572400D01*
X92370000Y-103500000D02*
X92000000Y-103870000D01*
X94447428Y-103500000D02*
X92370000Y-103500000D01*
X95519828Y-104572400D02*
X94447428Y-103500000D01*
X99500000Y-103570000D02*
X98497600Y-104572400D01*
X92000000Y-103870000D02*
X92000000Y-104570000D01*
%TO.N,Net-(Q1-S)*%
X124070000Y-116540000D02*
X123660000Y-116540000D01*
X124515000Y-116540000D02*
X124070000Y-116540000D01*
X123660000Y-116540000D02*
X118120000Y-122080000D01*
X129975000Y-111080000D02*
X124515000Y-116540000D01*
X131120000Y-111080000D02*
X129975000Y-111080000D01*
%TO.N,Net-(U3A-+)*%
X124270000Y-108840000D02*
X124270000Y-106230000D01*
X124270000Y-106230000D02*
X123930000Y-105890000D01*
%TO.N,Net-(U3A--)*%
X120770000Y-108840000D02*
X120770000Y-106510000D01*
X120770000Y-106510000D02*
X121390000Y-105890000D01*
%TO.N,Net-(D2-A)*%
X219313416Y-117374633D02*
X216398304Y-117374633D01*
%TO.N,Net-(Q2-D)*%
X150960000Y-74030000D02*
X151000000Y-73990000D01*
X160664900Y-77772400D02*
X157272400Y-77772400D01*
X143050000Y-74030000D02*
X150960000Y-74030000D01*
X157272400Y-77772400D02*
X156030000Y-76530000D01*
X151000000Y-73990000D02*
X151000000Y-76530000D01*
X160664900Y-69315100D02*
X160664900Y-77772400D01*
X161460000Y-68520000D02*
X160664900Y-69315100D01*
X156030000Y-76530000D02*
X151000000Y-76530000D01*
%TO.N,Net-(R32-Pad2)*%
X176919239Y-74000000D02*
X172500000Y-74000000D01*
X127500000Y-84000000D02*
X122000000Y-84000000D01*
X114500000Y-84000000D02*
X112000000Y-86500000D01*
X188500000Y-68500000D02*
X188500000Y-71000000D01*
X178419239Y-72500000D02*
X176919239Y-74000000D01*
X170500000Y-74000000D02*
X166000000Y-78500000D01*
X156500000Y-78000000D02*
X156298236Y-77798236D01*
X134500000Y-80000000D02*
X130500000Y-84000000D01*
X112000000Y-86500000D02*
X83510000Y-86500000D01*
X130500000Y-84000000D02*
X130000000Y-84000000D01*
X166000000Y-78500000D02*
X163000000Y-78500000D01*
X192110000Y-67390000D02*
X191000000Y-68500000D01*
X83510000Y-86500000D02*
X82000000Y-84990000D01*
X188500000Y-71000000D02*
X187000000Y-72500000D01*
X192110000Y-67310000D02*
X192110000Y-67390000D01*
X187000000Y-72500000D02*
X178419239Y-72500000D01*
X156298236Y-77798236D02*
X145208121Y-77798236D01*
%TO.N,Net-(D4-A)*%
X144000000Y-119740000D02*
X147120000Y-116620000D01*
X150500000Y-122230000D02*
X150500000Y-120000000D01*
X143695548Y-123557800D02*
X144000000Y-123253348D01*
X124070000Y-121620000D02*
X124950000Y-122500000D01*
X132682572Y-122500000D02*
X134534972Y-120647600D01*
X142544452Y-123557800D02*
X143695548Y-123557800D01*
X139634252Y-120647600D02*
X142544452Y-123557800D01*
X144000000Y-123253348D02*
X144000000Y-119740000D01*
X150500000Y-120000000D02*
X147120000Y-116620000D01*
X124950000Y-122500000D02*
X132682572Y-122500000D01*
X134534972Y-120647600D02*
X139634252Y-120647600D01*
%TO.N,Net-(U2B--)*%
X225500000Y-54537500D02*
X218037500Y-62000000D01*
X212620000Y-64877500D02*
X212620000Y-62337500D01*
X218037500Y-62000000D02*
X215500000Y-62000000D01*
%TO.N,Net-(U10C-DIODE_BIAS)*%
X182190000Y-94650000D02*
X183190000Y-95650000D01*
X180190000Y-94650000D02*
X182190000Y-94650000D01*
%TO.N,Net-(Q12-D)*%
X161460000Y-133540000D02*
X161460000Y-129450000D01*
X161420000Y-121000000D02*
X161420000Y-129410000D01*
X175550000Y-138500000D02*
X171580000Y-138500000D01*
X161420000Y-129410000D02*
X161460000Y-129450000D01*
X171580000Y-138500000D02*
X169000000Y-141080000D01*
X161420000Y-121000000D02*
X163960000Y-121000000D01*
X169000000Y-141080000D02*
X161460000Y-133540000D01*
%TO.N,Net-(Q12-S)*%
X191500000Y-138000000D02*
X196000000Y-138000000D01*
X190887400Y-143014400D02*
X177524400Y-143014400D01*
X191500000Y-142401800D02*
X190887400Y-143014400D01*
X177524400Y-143014400D02*
X175550000Y-141040000D01*
X191500000Y-138000000D02*
X191500000Y-142401800D01*
%TO.N,Net-(R31-Pad2)*%
X164118514Y-77850000D02*
X163204900Y-76936386D01*
X83910192Y-86017800D02*
X83202400Y-85310008D01*
X157000000Y-72500000D02*
X142500000Y-72500000D01*
X82127608Y-83500000D02*
X80990000Y-83500000D01*
X131500000Y-75500000D02*
X125976652Y-75500000D01*
X177190000Y-65310000D02*
X177187200Y-65307200D01*
X83202400Y-84574792D02*
X82127608Y-83500000D01*
X80990000Y-83500000D02*
X79500000Y-84990000D01*
X124502400Y-78997600D02*
X124500000Y-79000000D01*
X112500000Y-79500000D02*
X105982200Y-86017800D01*
X133000000Y-73000000D02*
X132500000Y-73500000D01*
X159000000Y-74500000D02*
X157000000Y-72500000D01*
X170707200Y-72104286D02*
X164961486Y-77850000D01*
X105982200Y-86017800D02*
X83910192Y-86017800D01*
X164961486Y-77850000D02*
X164118514Y-77850000D01*
X139500000Y-73000000D02*
X133000000Y-73000000D01*
X122500000Y-79500000D02*
X118000000Y-79500000D01*
X163204900Y-76936386D02*
X163204900Y-75973414D01*
X83202400Y-85310008D02*
X83202400Y-84574792D01*
X163204900Y-75973414D02*
X161731486Y-74500000D01*
X171009452Y-65307200D02*
X170707200Y-65609452D01*
X124502400Y-76974252D02*
X124502400Y-78997600D01*
X177187200Y-65307200D02*
X171009452Y-65307200D01*
X125976652Y-75500000D02*
X124502400Y-76974252D01*
X161731486Y-74500000D02*
X161500000Y-74500000D01*
X170707200Y-65609452D02*
X170707200Y-72104286D01*
%TO.N,Net-(Q2-G)*%
X145424972Y-68622400D02*
X158817600Y-68622400D01*
X158817600Y-68622400D02*
X158920000Y-68520000D01*
X146500000Y-63270000D02*
X145137600Y-64632400D01*
X145137600Y-68335028D02*
X145424972Y-68622400D01*
X145137600Y-64632400D02*
X145137600Y-68335028D01*
%TO.N,Net-(Q10-D)*%
X111650000Y-77670000D02*
X111650000Y-68380000D01*
X115500000Y-81520000D02*
X111650000Y-77670000D01*
%TO.N,Net-(D1-A)*%
X216443192Y-125374633D02*
X219313416Y-125374633D01*
%TO.N,Net-(U9D--)*%
X204040000Y-130620000D02*
X201500000Y-130620000D01*
%TO.N,Net-(Q1-D)*%
X144000000Y-113000000D02*
X130150000Y-113000000D01*
X152000000Y-111920000D02*
X152000000Y-112000000D01*
X124070000Y-119080000D02*
X130150000Y-113000000D01*
%TO.N,Net-(U8A-DIODE_BIAS)*%
X119150000Y-59362572D02*
X121012572Y-57500000D01*
X124597218Y-50097600D02*
X125402782Y-50097600D01*
X119150000Y-61260000D02*
X119150000Y-59362572D01*
X125402782Y-50097600D02*
X125972400Y-50667218D01*
X121012572Y-57500000D02*
X122500000Y-57500000D01*
X125972400Y-55557600D02*
X125150000Y-56380000D01*
X124027600Y-50667218D02*
X124597218Y-50097600D01*
X122602400Y-57397600D02*
X122602400Y-52397600D01*
X122602400Y-52397600D02*
X124027600Y-50972400D01*
X122500000Y-57500000D02*
X122602400Y-57397600D01*
X125972400Y-50667218D02*
X125972400Y-55557600D01*
X124027600Y-50972400D02*
X124027600Y-50667218D01*
%TO.N,Net-(U10C--)*%
X179337600Y-98815028D02*
X181252572Y-100730000D01*
X177240000Y-97000000D02*
X178557428Y-97000000D01*
X178557428Y-97000000D02*
X179337600Y-97780172D01*
X179337600Y-97780172D02*
X179337600Y-98815028D01*
X181252572Y-100730000D02*
X183190000Y-100730000D01*
X174690000Y-100150000D02*
X174690000Y-99550000D01*
X174690000Y-99550000D02*
X177240000Y-97000000D01*
%TO.N,Net-(RV16-Pad1)*%
X201567800Y-104825548D02*
X198595748Y-107797600D01*
X198595748Y-107797600D02*
X191362400Y-107797600D01*
X189332200Y-104747800D02*
X190810000Y-103270000D01*
X190810000Y-108350000D02*
X189332200Y-106872200D01*
X201000000Y-101500000D02*
X201567800Y-102067800D01*
X201567800Y-102067800D02*
X201567800Y-104825548D01*
X189332200Y-106872200D02*
X189332200Y-104747800D01*
X191362400Y-107797600D02*
X190810000Y-108350000D01*
%TO.N,Net-(Q16-D)*%
X169000000Y-138540000D02*
X162716908Y-132256908D01*
X162675138Y-100781956D02*
X162713712Y-100743382D01*
X170550000Y-89460000D02*
X167550000Y-89460000D01*
X162675138Y-118404527D02*
X162675138Y-100781956D01*
X162716908Y-132256908D02*
X162716908Y-123088752D01*
X164050000Y-92960000D02*
X164050000Y-95500000D01*
X167550000Y-89460000D02*
X164050000Y-92960000D01*
%TO.N,Net-(Q19-D)*%
X183690000Y-88150000D02*
X174400000Y-88150000D01*
X174400000Y-88150000D02*
X170550000Y-92000000D01*
%TO.N,Net-(RV13-Pad1)*%
X123177600Y-52892400D02*
X123177600Y-62095918D01*
X128247800Y-62737800D02*
X126770000Y-61260000D01*
X130372200Y-62737800D02*
X128247800Y-62737800D01*
X123794082Y-62712400D02*
X125317600Y-62712400D01*
X123177600Y-62095918D02*
X123794082Y-62712400D01*
X125317600Y-62712400D02*
X126770000Y-61260000D01*
X125000000Y-51070000D02*
X123177600Y-52892400D01*
X131850000Y-61260000D02*
X130372200Y-62737800D01*
%TO.N,Net-(SW1-B)*%
X127590000Y-131110000D02*
X136620000Y-122080000D01*
X82000000Y-131110000D02*
X127590000Y-131110000D01*
%TO.N,Net-(D12-A)*%
X184500000Y-130310000D02*
X185299999Y-131109999D01*
X188800000Y-130620000D02*
X188380000Y-130620000D01*
X185299999Y-138091687D02*
X184096586Y-139295100D01*
X188380000Y-130620000D02*
X188070000Y-130310000D01*
X178885100Y-139295100D02*
X175550000Y-135960000D01*
X184096586Y-139295100D02*
X178885100Y-139295100D01*
X188800000Y-130620000D02*
X188800000Y-133875000D01*
X188070000Y-130310000D02*
X184500000Y-130310000D01*
X185299999Y-131109999D02*
X185299999Y-138091687D01*
X188800000Y-133875000D02*
X188925000Y-134000000D01*
%TO.N,Net-(U4-V_{GG})*%
X197074633Y-54476584D02*
X199954633Y-51596584D01*
X200574633Y-46939084D02*
X200574633Y-49509084D01*
X200074633Y-46439084D02*
X200574633Y-46939084D01*
X199954633Y-51596584D02*
X199954633Y-50129084D01*
X200574633Y-49509084D02*
X199954633Y-50129084D01*
X197074633Y-46439084D02*
X200074633Y-46439084D01*
%TO.N,Net-(U5-C1(1))*%
X185110000Y-80500000D02*
X185110000Y-78110000D01*
X185110000Y-78110000D02*
X184810000Y-77810000D01*
%TO.N,Net-(U5-C1(2))*%
X187350000Y-77810000D02*
X187350000Y-80335000D01*
X187350000Y-80335000D02*
X187185000Y-80500000D01*
%TO.N,Net-(U4-CP1)*%
X216190028Y-63235100D02*
X219074633Y-66119705D01*
X189000000Y-74000000D02*
X183540000Y-74000000D01*
X219074633Y-66119705D02*
X219074633Y-67439084D01*
X215205172Y-63235100D02*
X216190028Y-63235100D01*
X197000000Y-66000000D02*
X189000000Y-74000000D01*
X214522600Y-62060100D02*
X214522600Y-62552528D01*
X183540000Y-74000000D02*
X179730000Y-77810000D01*
X179730000Y-77810000D02*
X179730000Y-80270000D01*
X211602233Y-51181484D02*
X211602233Y-59139733D01*
X211602233Y-60163585D02*
X205765818Y-66000000D01*
X179730000Y-80270000D02*
X179000000Y-81000000D01*
X205765818Y-66000000D02*
X197000000Y-66000000D01*
X211602233Y-59139733D02*
X214522600Y-62060100D01*
X211602233Y-59139733D02*
X211602233Y-60163585D01*
X214522600Y-62552528D02*
X215205172Y-63235100D01*
X212654633Y-50129084D02*
X211602233Y-51181484D01*
X177190000Y-77810000D02*
X179730000Y-77810000D01*
%TO.N,Net-(U2A-+)*%
X219074633Y-69962867D02*
X219000000Y-70037500D01*
X213160000Y-73037500D02*
X212620000Y-72497500D01*
X215500000Y-73037500D02*
X213160000Y-73037500D01*
X219074633Y-69514084D02*
X219074633Y-69962867D01*
%TO.N,Net-(U6-C_{h})*%
X229574633Y-80364084D02*
X230442033Y-79496684D01*
X230442033Y-73761484D02*
X229389633Y-72709084D01*
X230442033Y-79496684D02*
X230442033Y-73761484D01*
%TO.N,Net-(U2D-+)*%
X213209900Y-66365100D02*
X215500000Y-64075000D01*
X202000000Y-72939084D02*
X204558416Y-72939084D01*
X211132400Y-66365100D02*
X213209900Y-66365100D01*
X204558416Y-72939084D02*
X205000000Y-72497500D01*
X205000000Y-72497500D02*
X211132400Y-66365100D01*
%TO.N,Net-(D11-A)*%
X157500000Y-63145000D02*
X154245000Y-63145000D01*
X160124900Y-75855100D02*
X160124900Y-67267600D01*
X159460000Y-76520000D02*
X160124900Y-75855100D01*
X154120000Y-67260000D02*
X153810000Y-67570000D01*
X154245000Y-63145000D02*
X154120000Y-63270000D01*
X158857300Y-66000000D02*
X154120000Y-66000000D01*
X154120000Y-66000000D02*
X154120000Y-67260000D01*
X160124900Y-67267600D02*
X158857300Y-66000000D01*
X154120000Y-63270000D02*
X154120000Y-66000000D01*
%TO.N,Net-(C18-Pad2)*%
X117537500Y-52570000D02*
X121347500Y-56380000D01*
X121347500Y-56380000D02*
X121650000Y-56380000D01*
%TO.N,Net-(C20-Pad2)*%
X134150000Y-56342500D02*
X137727500Y-56342500D01*
X137727500Y-56342500D02*
X138500000Y-55570000D01*
X131297600Y-54545028D02*
X133095072Y-56342500D01*
X134150000Y-56342500D02*
X134150000Y-53880000D01*
X131297600Y-48772400D02*
X131297600Y-54545028D01*
X133095072Y-56342500D02*
X134150000Y-56342500D01*
X133500000Y-46570000D02*
X131297600Y-48772400D01*
%TO.N,Net-(C20-Pad1)*%
X139650000Y-59230761D02*
X138867039Y-58447800D01*
X134180300Y-58447800D02*
X134150000Y-58417500D01*
X136770000Y-61260000D02*
X137150000Y-60880000D01*
X137150000Y-60880000D02*
X138539239Y-60880000D01*
X138539239Y-60880000D02*
X139650000Y-59769239D01*
X134390000Y-61260000D02*
X136770000Y-61260000D01*
X138867039Y-58447800D02*
X134180300Y-58447800D01*
X139650000Y-59769239D02*
X139650000Y-59230761D01*
%TO.N,Net-(C21-Pad1)*%
X134390000Y-69582500D02*
X136650000Y-71842500D01*
X134390000Y-68880000D02*
X137150000Y-68880000D01*
X134390000Y-68880000D02*
X134390000Y-69582500D01*
X137150000Y-68880000D02*
X138650000Y-67380000D01*
%TO.N,Net-(C21-Pad2)*%
X136650000Y-73917500D02*
X134187500Y-73917500D01*
X134187500Y-73917500D02*
X134150000Y-73880000D01*
X137000000Y-77730000D02*
X136650000Y-77380000D01*
X137000000Y-82570000D02*
X137000000Y-77730000D01*
X136650000Y-77380000D02*
X136650000Y-73917500D01*
%TO.N,Net-(C27-Pad2)*%
X195690000Y-97847500D02*
X199500000Y-94037500D01*
X195690000Y-98150000D02*
X195690000Y-97847500D01*
%TO.N,Net-(C28-Pad2)*%
X178190000Y-98150000D02*
X178190000Y-101650000D01*
%TO.N,Net-(C29-Pad1)*%
X191190000Y-113650000D02*
X191190000Y-111270000D01*
X190810000Y-110890000D02*
X193412500Y-110890000D01*
X191190000Y-111270000D02*
X190810000Y-110890000D01*
X193412500Y-110890000D02*
X193652500Y-110650000D01*
%TO.N,Net-(C29-Pad2)*%
X205297600Y-109797600D02*
X199042400Y-109797600D01*
X205500000Y-110000000D02*
X205297600Y-109797600D01*
X195727500Y-114227500D02*
X195727500Y-110650000D01*
X198190000Y-110650000D02*
X195727500Y-110650000D01*
X196500000Y-115000000D02*
X195727500Y-114227500D01*
X199042400Y-109797600D02*
X198190000Y-110650000D01*
%TO.N,Net-(C30-Pad2)*%
X178152500Y-110687500D02*
X178190000Y-110650000D01*
X174000000Y-113500000D02*
X169500000Y-113500000D01*
X178152500Y-113150000D02*
X178152500Y-110687500D01*
X174350000Y-113150000D02*
X174000000Y-113500000D01*
X178152500Y-113150000D02*
X174690000Y-113150000D01*
X174690000Y-113150000D02*
X174350000Y-113150000D01*
%TO.N,Net-(C30-Pad1)*%
X180227500Y-113150000D02*
X180930000Y-113150000D01*
X183190000Y-110890000D02*
X183190000Y-112310000D01*
X183190000Y-112310000D02*
X183000000Y-112500000D01*
X180930000Y-113150000D02*
X183190000Y-110890000D01*
%TO.N,Net-(D3-K)*%
X219313416Y-133374633D02*
X216318416Y-133374633D01*
%TO.N,Net-(D7-A)*%
X137557428Y-121500000D02*
X137472400Y-121414972D01*
X135700000Y-121000000D02*
X134620000Y-122080000D01*
X137472400Y-123917600D02*
X137472400Y-121414972D01*
X137057428Y-121000000D02*
X135700000Y-121000000D01*
X138000000Y-121500000D02*
X137557428Y-121500000D01*
X134810000Y-126580000D02*
X137472400Y-123917600D01*
X137472400Y-121414972D02*
X137057428Y-121000000D01*
X134810000Y-126580000D02*
X134810000Y-130580000D01*
%TO.N,Net-(D7-K)*%
X143420000Y-126580000D02*
X142430000Y-126580000D01*
X145120000Y-125080000D02*
X144920000Y-125080000D01*
X144920000Y-125080000D02*
X143420000Y-126580000D01*
X145120000Y-125080000D02*
X145120000Y-122580000D01*
%TO.N,Net-(D10-K)*%
X190110000Y-63310000D02*
X190110000Y-67310000D01*
X190110000Y-67310000D02*
X190110000Y-67890000D01*
X186610000Y-59810000D02*
X190110000Y-63310000D01*
X189890000Y-68110000D02*
X189890000Y-70190000D01*
X185920000Y-55810000D02*
X185920000Y-59810000D01*
X190110000Y-67890000D02*
X189890000Y-68110000D01*
X185920000Y-59810000D02*
X186610000Y-59810000D01*
%TO.N,Net-(J2-T)*%
X85930000Y-92500000D02*
X63500000Y-92500000D01*
X97000000Y-103570000D02*
X85930000Y-92500000D01*
%TO.N,Net-(J5-T)*%
X71500000Y-65000000D02*
X63500000Y-57000000D01*
X81000000Y-65000000D02*
X71500000Y-65000000D01*
X94430000Y-65500000D02*
X83500000Y-65500000D01*
X97000000Y-68070000D02*
X94430000Y-65500000D01*
%TO.N,Net-(J6-T)*%
X85930000Y-73920000D02*
X63500000Y-73920000D01*
X97000000Y-84990000D02*
X85930000Y-73920000D01*
%TO.N,Net-(J8-T)*%
X168350000Y-86150000D02*
X163500000Y-91000000D01*
X137679828Y-129527600D02*
X135207428Y-132000000D01*
X161500000Y-92000000D02*
X158500000Y-95000000D01*
X158500000Y-105000000D02*
X158500000Y-115500000D01*
X157500000Y-117000000D02*
X144972400Y-129527600D01*
X144972400Y-129527600D02*
X137679828Y-129527600D01*
X135207428Y-132000000D02*
X102000000Y-132000000D01*
X198962500Y-80537500D02*
X195500000Y-84000000D01*
X158500000Y-95000000D02*
X158500000Y-102000000D01*
X193500000Y-85000000D02*
X192350000Y-86150000D01*
X192350000Y-86150000D02*
X168350000Y-86150000D01*
X203500000Y-80537500D02*
X198962500Y-80537500D01*
%TO.N,Net-(J9-T)*%
X93218369Y-105850000D02*
X92718369Y-106350000D01*
X92718369Y-106350000D02*
X66570000Y-106350000D01*
X97000000Y-120490000D02*
X97000000Y-108080761D01*
X66570000Y-106350000D02*
X63500000Y-109420000D01*
X94769239Y-105850000D02*
X93218369Y-105850000D01*
X97000000Y-108080761D02*
X94769239Y-105850000D01*
%TO.N,Net-(J10-T)*%
X99430000Y-40570000D02*
X99500000Y-40500000D01*
%TO.N,Net-(R5-Pad1)*%
X82000000Y-103570000D02*
X83027800Y-104597800D01*
X83027800Y-104597800D02*
X87472200Y-104597800D01*
X87472200Y-104597800D02*
X87500000Y-104570000D01*
%TO.N,Net-(R6-Pad1)*%
X116772400Y-81040914D02*
X116772400Y-82272400D01*
X112502400Y-67714972D02*
X112502400Y-76770914D01*
X127000000Y-91500000D02*
X135000000Y-99500000D01*
X112215028Y-67427600D02*
X112502400Y-67714972D01*
X84430000Y-54000000D02*
X98000000Y-54000000D01*
X112502400Y-76770914D02*
X116772400Y-81040914D01*
X116772400Y-82272400D02*
X120500000Y-86000000D01*
X102000000Y-58000000D02*
X102000000Y-60500000D01*
X82000000Y-51570000D02*
X84430000Y-54000000D01*
X102000000Y-60500000D02*
X108927600Y-67427600D01*
X108927600Y-67427600D02*
X112215028Y-67427600D01*
X135000000Y-99500000D02*
X135000000Y-101920000D01*
%TO.N,Net-(U4-IN)*%
X182000000Y-62000000D02*
X179000000Y-65000000D01*
X192500000Y-61000000D02*
X189000000Y-61000000D01*
X206184633Y-46439084D02*
X202494633Y-50129084D01*
X187500000Y-62000000D02*
X182000000Y-62000000D01*
X207074633Y-46439084D02*
X206184633Y-46439084D01*
X151687300Y-98420000D02*
X139500000Y-98420000D01*
X173000000Y-72500000D02*
X165784900Y-79715100D01*
X202494633Y-51005367D02*
X198500000Y-55000000D01*
X165784900Y-84322400D02*
X151687300Y-98420000D01*
X179000000Y-65000000D02*
X179000000Y-68000000D01*
X165784900Y-79715100D02*
X165784900Y-84322400D01*
X177500000Y-72500000D02*
X173000000Y-72500000D01*
X179000000Y-68000000D02*
X178500000Y-68500000D01*
X139500000Y-98420000D02*
X139500000Y-101380000D01*
X202494633Y-50129084D02*
X202494633Y-51005367D01*
X196000000Y-57500000D02*
X192500000Y-61000000D01*
%TO.N,Net-(R11-Pad1)*%
X122500000Y-110700000D02*
X118120000Y-115080000D01*
X122500000Y-105431682D02*
X122500000Y-109000000D01*
X129010000Y-105890000D02*
X127557600Y-104437600D01*
X123494082Y-104437600D02*
X122500000Y-105431682D01*
X131120000Y-108000000D02*
X129010000Y-105890000D01*
X131120000Y-109080000D02*
X131120000Y-108000000D01*
X122500000Y-110500000D02*
X122500000Y-110700000D01*
X127557600Y-104437600D02*
X123494082Y-104437600D01*
%TO.N,Net-(U3A-DIODE_BIAS)*%
X128747800Y-109862200D02*
X128747800Y-108167800D01*
X128747800Y-108167800D02*
X126470000Y-105890000D01*
X127770000Y-110840000D02*
X128747800Y-109862200D01*
%TO.N,Net-(R21-Pad2)*%
X215500000Y-80037500D02*
X216477800Y-79059700D01*
X216477800Y-79059700D02*
X223522200Y-79059700D01*
X215080000Y-80037500D02*
X215500000Y-80037500D01*
X223522200Y-79059700D02*
X224500000Y-80037500D01*
X212620000Y-77577500D02*
X215080000Y-80037500D01*
%TO.N,Net-(U6-T)*%
X220477800Y-81015300D02*
X225424000Y-81015300D01*
X219500000Y-80037500D02*
X220477800Y-81015300D01*
X225424000Y-81015300D02*
X228337233Y-78102067D01*
X217500000Y-80037500D02*
X219500000Y-80037500D01*
X228337233Y-71221484D02*
X229389633Y-70169084D01*
X228337233Y-78102067D02*
X228337233Y-71221484D01*
%TO.N,Net-(U5-R2)*%
X182190000Y-67310000D02*
X182190000Y-70110000D01*
X182190000Y-70110000D02*
X182270000Y-70190000D01*
%TO.N,Net-(U5-R1)*%
X184810000Y-68110000D02*
X185610000Y-67310000D01*
X184810000Y-70190000D02*
X184810000Y-68110000D01*
%TO.N,Net-(R25-Pad1)*%
X224614633Y-62439084D02*
X227574633Y-62439084D01*
%TO.N,Net-(R34-Pad2)*%
X116805228Y-70902200D02*
X115574452Y-70902200D01*
X141602400Y-61445028D02*
X141047428Y-62000000D01*
X190000000Y-60000000D02*
X190000000Y-58072572D01*
X192110000Y-62610000D02*
X191500000Y-62000000D01*
X141047428Y-62000000D02*
X136000000Y-62000000D01*
X136000000Y-62000000D02*
X134909800Y-63090200D01*
X145765761Y-57000000D02*
X141602400Y-61163361D01*
X156346439Y-53192200D02*
X154966439Y-54572200D01*
X182192200Y-53192200D02*
X156346439Y-53192200D01*
X113500000Y-72976652D02*
X113500000Y-74500000D01*
X134909800Y-63090200D02*
X123409800Y-63090200D01*
X110500000Y-75500000D02*
X108990000Y-75500000D01*
X123409800Y-63090200D02*
X121500000Y-65000000D01*
X150927800Y-54572200D02*
X148500000Y-57000000D01*
X148500000Y-57000000D02*
X145765761Y-57000000D01*
X118000000Y-69707428D02*
X116805228Y-70902200D01*
X185927428Y-54000000D02*
X185500000Y-54000000D01*
X118000000Y-66500000D02*
X118000000Y-69707428D01*
X183000000Y-54000000D02*
X182192200Y-53192200D01*
X108990000Y-75500000D02*
X99500000Y-84990000D01*
X192110000Y-63310000D02*
X192110000Y-62610000D01*
X190000000Y-58072572D02*
X185927428Y-54000000D01*
X115574452Y-70902200D02*
X113500000Y-72976652D01*
X154966439Y-54572200D02*
X150927800Y-54572200D01*
X141602400Y-61163361D02*
X141602400Y-61445028D01*
%TO.N,Net-(R35-Pad2)*%
X88500000Y-84570000D02*
X84920000Y-84570000D01*
X84920000Y-84570000D02*
X84500000Y-84990000D01*
%TO.N,Net-(R39-Pad1)*%
X87500000Y-121570000D02*
X83073947Y-121570000D01*
X83073947Y-121570000D02*
X81993947Y-120490000D01*
%TO.N,Net-(R40-Pad1)*%
X98420000Y-121570000D02*
X99500000Y-120490000D01*
X94000000Y-121570000D02*
X98420000Y-121570000D01*
%TO.N,Net-(U2C--)*%
X202000000Y-64537500D02*
X202500000Y-64537500D01*
X202840000Y-64877500D02*
X205000000Y-64877500D01*
X199074633Y-64439084D02*
X201901584Y-64439084D01*
X201901584Y-64439084D02*
X202000000Y-64537500D01*
X202500000Y-64537500D02*
X202840000Y-64877500D01*
%TO.N,Net-(R42-Pad2)*%
X203899433Y-56767197D02*
X202632235Y-55500000D01*
X198459620Y-55959619D02*
X192459619Y-55959619D01*
X204800000Y-62537500D02*
X205000000Y-62337500D01*
X202000000Y-62537500D02*
X203899433Y-60638067D01*
X203899433Y-60638067D02*
X203899433Y-56767197D01*
X202000000Y-62537500D02*
X204800000Y-62537500D01*
X198919239Y-55500000D02*
X198459620Y-55959619D01*
X192459619Y-55959619D02*
X188000000Y-51500000D01*
X202632235Y-55500000D02*
X198919239Y-55500000D01*
%TO.N,Net-(R44-Pad2)*%
X140650000Y-51260000D02*
X139960000Y-50570000D01*
X139960000Y-50570000D02*
X137420000Y-50570000D01*
X140650000Y-60880000D02*
X140650000Y-51260000D01*
%TO.N,Net-(U7A--)*%
X132150000Y-53880000D02*
X132150000Y-52284800D01*
X133102400Y-51332400D02*
X132150000Y-50380000D01*
X136449828Y-49597600D02*
X134715028Y-51332400D01*
X132150000Y-52284800D02*
X133102400Y-51332400D01*
X134715028Y-51332400D02*
X133102400Y-51332400D01*
X133000000Y-67500000D02*
X133000000Y-70730000D01*
X146500000Y-50570000D02*
X145527600Y-49597600D01*
X133000000Y-70730000D02*
X134150000Y-71880000D01*
X145527600Y-49597600D02*
X136449828Y-49597600D01*
%TO.N,Net-(R64-Pad2)*%
X201500000Y-116460000D02*
X191880000Y-116460000D01*
X201500000Y-113920000D02*
X201500000Y-116460000D01*
X191880000Y-116460000D02*
X191190000Y-117150000D01*
%TO.N,Net-(U1B--)*%
X136460000Y-116620000D02*
X139500000Y-116620000D01*
X129620000Y-121080000D02*
X129620000Y-119080000D01*
X132620000Y-116080000D02*
X135160000Y-116080000D01*
X129620000Y-119080000D02*
X132620000Y-116080000D01*
X139500000Y-116620000D02*
X139500000Y-114080000D01*
X135160000Y-116080000D02*
X135920000Y-116080000D01*
X135920000Y-116080000D02*
X136460000Y-116620000D01*
%TO.N,Net-(U6-Adj)*%
X222847433Y-63211884D02*
X222847433Y-69091284D01*
X222074633Y-62439084D02*
X222847433Y-63211884D01*
X222847433Y-69091284D02*
X221769633Y-70169084D01*
%TO.N,Net-(U4-OUT1)*%
X212654633Y-57749084D02*
X214366217Y-56037500D01*
X221769633Y-72709084D02*
X223500000Y-70978717D01*
X223500000Y-70978717D02*
X223500000Y-58537500D01*
X214366217Y-56037500D02*
X220000000Y-56037500D01*
%TO.N,Net-(U2B-+)*%
X212620000Y-67417500D02*
X213874700Y-68672200D01*
X221333714Y-73761484D02*
X226223984Y-73761484D01*
X216244430Y-68672200D02*
X221333714Y-73761484D01*
X226223984Y-73761484D02*
X227500000Y-75037500D01*
X213874700Y-68672200D02*
X216244430Y-68672200D01*
%TO.N,Net-(U4-CP2)*%
X192962400Y-69005918D02*
X188468318Y-73500000D01*
X202247205Y-57749084D02*
X192962400Y-67033889D01*
X188468318Y-73500000D02*
X178960000Y-73500000D01*
X192962400Y-67033889D02*
X192962400Y-69005918D01*
X178960000Y-73500000D02*
X174650000Y-77810000D01*
X202494633Y-57749084D02*
X202247205Y-57749084D01*
%TO.N,Net-(U7D--)*%
X154120000Y-48030000D02*
X154120000Y-50570000D01*
%TO.N,/Mixer1/V_{ctrl}*%
X157160000Y-60730000D02*
X157500000Y-61070000D01*
X154120000Y-60730000D02*
X157160000Y-60730000D01*
X123000000Y-64500000D02*
X134000000Y-64500000D01*
X94000000Y-69070000D02*
X94354032Y-69424032D01*
X116500000Y-66500000D02*
X117500000Y-65500000D01*
X99452392Y-66500000D02*
X107000000Y-66500000D01*
X94354032Y-69424032D02*
X97358776Y-69424032D01*
X147280000Y-67570000D02*
X146190000Y-67570000D01*
X157500000Y-61070000D02*
X159000000Y-62570000D01*
X109500000Y-66500000D02*
X116500000Y-66500000D01*
X90452400Y-68117600D02*
X93047600Y-68117600D01*
X159000000Y-62570000D02*
X161500000Y-62570000D01*
X98297600Y-68485208D02*
X98297600Y-67654792D01*
X93047600Y-68117600D02*
X94000000Y-69070000D01*
X89500000Y-69070000D02*
X90452400Y-68117600D01*
X97358776Y-69424032D02*
X98297600Y-68485208D01*
X154120000Y-60730000D02*
X147280000Y-67570000D01*
X98297600Y-67654792D02*
X99452392Y-66500000D01*
%TO.N,/Mixer1/V_{in1}*%
X132500000Y-88000000D02*
X136500000Y-88000000D01*
X100070000Y-57070000D02*
X99000000Y-56000000D01*
X120000000Y-75000000D02*
X120000000Y-75500000D01*
X120000000Y-75500000D02*
X132500000Y-88000000D01*
X120318318Y-72181682D02*
X120000000Y-72500000D01*
X113000000Y-57070000D02*
X113000000Y-59681682D01*
X115462500Y-54607500D02*
X113000000Y-57070000D01*
X141500000Y-93500000D02*
X141500000Y-97000000D01*
X96500000Y-55000000D02*
X82930000Y-55000000D01*
X82930000Y-55000000D02*
X79500000Y-51570000D01*
X136500000Y-88000000D02*
X137500000Y-89000000D01*
X147120000Y-101380000D02*
X147120000Y-103920000D01*
X139500000Y-91500000D02*
X141500000Y-93500000D01*
X113000000Y-57070000D02*
X100070000Y-57070000D01*
X120318318Y-67000000D02*
X120318318Y-72181682D01*
X141500000Y-97000000D02*
X142000000Y-97500000D01*
X113000000Y-59681682D02*
X120318318Y-67000000D01*
X115462500Y-52570000D02*
X115462500Y-54607500D01*
%TO.N,/Mixer1/V_{in2}*%
X157000000Y-92000000D02*
X141000000Y-92000000D01*
X205000000Y-75037500D02*
X205000000Y-77577500D01*
X195000000Y-89500000D02*
X197000000Y-89500000D01*
X88500000Y-121000000D02*
X92852400Y-116647600D01*
X161500000Y-87500000D02*
X157000000Y-92000000D01*
X205500000Y-78537500D02*
X205500000Y-80537500D01*
X122500000Y-85500000D02*
X125070000Y-88070000D01*
X105402572Y-91650000D02*
X116769239Y-91650000D01*
X197037500Y-89500000D02*
X199500000Y-91962500D01*
X127930000Y-89000000D02*
X127000000Y-88070000D01*
X168702400Y-87297600D02*
X168500000Y-87500000D01*
X195000000Y-89500000D02*
X192797600Y-87297600D01*
X92852400Y-116647600D02*
X92852400Y-108147600D01*
X86070000Y-124500000D02*
X87500000Y-124500000D01*
X96000000Y-101500000D02*
X96000000Y-101052572D01*
X121497600Y-84208101D02*
X122500000Y-85210501D01*
X126500000Y-73155000D02*
X126500000Y-74266150D01*
X205500000Y-80537500D02*
X205500000Y-81000000D01*
X122500000Y-85210501D02*
X122500000Y-85500000D01*
X192797600Y-87297600D02*
X168702400Y-87297600D01*
X197000000Y-89500000D02*
X197037500Y-89500000D01*
X121497600Y-83002400D02*
X121497600Y-84208101D01*
X205000000Y-77577500D02*
X205000000Y-78037500D01*
X116769239Y-91650000D02*
X117500000Y-90919239D01*
X136000000Y-89000000D02*
X127930000Y-89000000D01*
X92852400Y-108147600D02*
X94500000Y-106500000D01*
X205000000Y-78037500D02*
X205500000Y-78537500D01*
X96000000Y-101052572D02*
X105402572Y-91650000D01*
X205500000Y-81000000D02*
X199000000Y-87500000D01*
X82000000Y-128570000D02*
X86070000Y-124500000D01*
X126500000Y-74266150D02*
X125370201Y-75395949D01*
X117500000Y-90919239D02*
X117500000Y-90000000D01*
X124000000Y-80500000D02*
X121497600Y-83002400D01*
X88500000Y-122500000D02*
X88500000Y-121000000D01*
X125150000Y-71805000D02*
X126500000Y-73155000D01*
X125070000Y-88070000D02*
X127000000Y-88070000D01*
%TO.N,/Mixer2/V_{ctrl}*%
X191000000Y-136000000D02*
X191000000Y-134000000D01*
X174500000Y-124000000D02*
X167500000Y-131000000D01*
X191000000Y-134000000D02*
X191000000Y-130960000D01*
X191340000Y-126840000D02*
X191340000Y-130620000D01*
X189500000Y-137500000D02*
X191000000Y-136000000D01*
X99555450Y-132000000D02*
X90500000Y-132000000D01*
X191000000Y-130960000D02*
X191340000Y-130620000D01*
X160500000Y-131000000D02*
X157852400Y-133647600D01*
X177000000Y-124000000D02*
X174500000Y-124000000D01*
X101203050Y-133647600D02*
X99555450Y-132000000D01*
X89500000Y-121570000D02*
X92000000Y-121570000D01*
X90000000Y-130000000D02*
X90000000Y-125000000D01*
X189500000Y-138000000D02*
X189500000Y-137500000D01*
X90000000Y-125000000D02*
X89500000Y-124500000D01*
X191000000Y-126500000D02*
X191340000Y-126840000D01*
X179310000Y-122690000D02*
X179000000Y-123000000D01*
X157852400Y-133647600D02*
X101203050Y-133647600D01*
X184500000Y-122690000D02*
X179310000Y-122690000D01*
%TO.N,/Mixer2/V_{in2}*%
X139508318Y-118500000D02*
X141500000Y-116508318D01*
X162444473Y-100093382D02*
X162982951Y-100093382D01*
X166227800Y-101272200D02*
X176282272Y-101272200D01*
X176282272Y-101272200D02*
X177637472Y-102627400D01*
X63500000Y-126150000D02*
X66150000Y-123500000D01*
X158580761Y-104000000D02*
X158580761Y-103957094D01*
X145577800Y-107922200D02*
X156077800Y-107922200D01*
X162982951Y-100093382D02*
X164000000Y-101110431D01*
X164000000Y-101110431D02*
X164000000Y-103500000D01*
X156500000Y-107500000D02*
X156500000Y-106080761D01*
X137000000Y-118500000D02*
X139508318Y-118500000D01*
X164000000Y-103500000D02*
X166227800Y-101272200D01*
X158580761Y-103957094D02*
X162444473Y-100093382D01*
X66150000Y-123500000D02*
X131000000Y-123500000D01*
X177637472Y-102627400D02*
X179287600Y-102627400D01*
X142500000Y-111000000D02*
X145577800Y-107922200D01*
X156077800Y-107922200D02*
X156500000Y-107500000D01*
X179287600Y-102627400D02*
X180265000Y-101650000D01*
X141500000Y-116508318D02*
X141500000Y-114500000D01*
X156500000Y-106080761D02*
X158580761Y-104000000D01*
%TO.N,/Mixer1/V_{out}*%
X177000000Y-46500000D02*
X148030000Y-46500000D01*
X199074633Y-62439084D02*
X199692951Y-62439084D01*
X190000000Y-56500000D02*
X186500000Y-53000000D01*
X146500000Y-44970000D02*
X148030000Y-46500000D01*
X146500000Y-48030000D02*
X136500000Y-48030000D01*
X202633867Y-56000000D02*
X199000000Y-56000000D01*
X203547033Y-56913166D02*
X202633867Y-56000000D01*
X199000000Y-56000000D02*
X198500000Y-56500000D01*
X203547033Y-58585002D02*
X203547033Y-56913166D01*
X146500000Y-44570000D02*
X146500000Y-44970000D01*
X148030000Y-46500000D02*
X146500000Y-48030000D01*
X136500000Y-48030000D02*
X134150000Y-50380000D01*
X199692951Y-62439084D02*
X203547033Y-58585002D01*
X198500000Y-56500000D02*
X190000000Y-56500000D01*
X183500000Y-53000000D02*
X177000000Y-46500000D01*
%TO.N,/Mixer1/Iout2*%
X116610000Y-61260000D02*
X121877600Y-66527600D01*
X121877600Y-66527600D02*
X142457600Y-66527600D01*
X142457600Y-66527600D02*
X143500000Y-67570000D01*
%TO.N,/Mixer1/Iout1*%
X114150000Y-68880000D02*
X113650000Y-68380000D01*
X116610000Y-68880000D02*
X114150000Y-68880000D01*
%TO.N,/Mixer2/Iout2*%
X183837600Y-118000000D02*
X184500000Y-118662400D01*
X188890000Y-93110000D02*
X190810000Y-93110000D01*
X186500000Y-109468318D02*
X186500000Y-95500000D01*
X183837600Y-118000000D02*
X183837600Y-112130718D01*
X186500000Y-95500000D02*
X188890000Y-93110000D01*
X183837600Y-112130718D02*
X186500000Y-109468318D01*
X184500000Y-118662400D02*
X184500000Y-120000000D01*
%TO.N,/Mixer2/Iout1*%
X179212200Y-93225548D02*
X179514452Y-93527800D01*
X182772200Y-93527800D02*
X183190000Y-93110000D01*
X183690000Y-90150000D02*
X181136652Y-90150000D01*
X179212200Y-92074452D02*
X179212200Y-93225548D01*
X181136652Y-90150000D02*
X179212200Y-92074452D01*
X179514452Y-93527800D02*
X182772200Y-93527800D01*
%TO.N,/Mixer2/V_{out}*%
X201690000Y-110650000D02*
X204040000Y-113000000D01*
X195500000Y-144000000D02*
X204000000Y-135500000D01*
X88397800Y-133172200D02*
X87500000Y-134070000D01*
X206000000Y-133000000D02*
X206000000Y-124960000D01*
X100229282Y-133172200D02*
X88397800Y-133172200D01*
X206000000Y-124960000D02*
X204040000Y-123000000D01*
X155500000Y-134000000D02*
X101057082Y-134000000D01*
X204040000Y-123000000D02*
X207500000Y-123000000D01*
X165500000Y-144000000D02*
X155500000Y-134000000D01*
X101057082Y-134000000D02*
X100229282Y-133172200D01*
X195500000Y-144000000D02*
X165500000Y-144000000D01*
X87080000Y-133650000D02*
X87500000Y-134070000D01*
X204040000Y-113000000D02*
X204040000Y-123000000D01*
X82000000Y-133650000D02*
X87080000Y-133650000D01*
%TD*%
M02*
