%TF.GenerationSoftware,KiCad,Pcbnew,10.0.0*%
%TF.CreationDate,2026-04-23T11:39:52-05:00*%
%TF.ProjectId,modularFeedbackProcessor,6d6f6475-6c61-4724-9665-65646261636b,rev?*%
%TF.SameCoordinates,Original*%
%TF.FileFunction,Paste,Top*%
%TF.FilePolarity,Positive*%
%FSLAX46Y46*%
G04 Gerber Fmt 4.6, Leading zero omitted, Abs format (unit mm)*
G04 Created by KiCad (PCBNEW 10.0.0) date 2026-04-23 11:39:52*
%MOMM*%
%LPD*%
G01*
G04 APERTURE LIST*
G04 Aperture macros list*
%AMRoundRect*
0 Rectangle with rounded corners*
0 $1 Rounding radius*
0 $2 $3 $4 $5 $6 $7 $8 $9 X,Y pos of 4 corners*
0 Add a 4 corners polygon primitive as box body*
4,1,4,$2,$3,$4,$5,$6,$7,$8,$9,$2,$3,0*
0 Add four circle primitives for the rounded corners*
1,1,$1+$1,$2,$3*
1,1,$1+$1,$4,$5*
1,1,$1+$1,$6,$7*
1,1,$1+$1,$8,$9*
0 Add four rect primitives between the rounded corners*
20,1,$1+$1,$2,$3,$4,$5,0*
20,1,$1+$1,$4,$5,$6,$7,0*
20,1,$1+$1,$6,$7,$8,$9,0*
20,1,$1+$1,$8,$9,$2,$3,0*%
G04 Aperture macros list end*
%ADD10RoundRect,0.250000X-0.350000X-0.450000X0.350000X-0.450000X0.350000X0.450000X-0.350000X0.450000X0*%
%ADD11RoundRect,0.250000X-0.475000X0.337500X-0.475000X-0.337500X0.475000X-0.337500X0.475000X0.337500X0*%
%ADD12RoundRect,0.250000X0.475000X-0.337500X0.475000X0.337500X-0.475000X0.337500X-0.475000X-0.337500X0*%
%ADD13RoundRect,0.250000X-0.337500X-0.475000X0.337500X-0.475000X0.337500X0.475000X-0.337500X0.475000X0*%
%ADD14RoundRect,0.250000X0.337500X0.475000X-0.337500X0.475000X-0.337500X-0.475000X0.337500X-0.475000X0*%
%ADD15RoundRect,0.250000X0.350000X0.450000X-0.350000X0.450000X-0.350000X-0.450000X0.350000X-0.450000X0*%
%ADD16RoundRect,0.250000X0.450000X-0.350000X0.450000X0.350000X-0.450000X0.350000X-0.450000X-0.350000X0*%
%ADD17RoundRect,0.250000X-0.450000X0.350000X-0.450000X-0.350000X0.450000X-0.350000X0.450000X0.350000X0*%
%ADD18R,1.524000X1.270000*%
%ADD19R,1.270000X1.524000*%
G04 APERTURE END LIST*
D10*
%TO.C,R34*%
X190110000Y-63310000D03*
X192110000Y-63310000D03*
%TD*%
D11*
%TO.C,C1*%
X136500000Y-110995000D03*
X136500000Y-108920000D03*
%TD*%
%TO.C,C2*%
X150000000Y-108920000D03*
X150000000Y-106845000D03*
%TD*%
D12*
%TO.C,C3*%
X215500000Y-69537500D03*
X215500000Y-67462500D03*
%TD*%
D13*
%TO.C,C4*%
X202112133Y-69439084D03*
X200037133Y-69439084D03*
%TD*%
D11*
%TO.C,C5*%
X116270000Y-110877500D03*
X116270000Y-108802500D03*
%TD*%
D13*
%TO.C,C6*%
X116157500Y-95080000D03*
X114082500Y-95080000D03*
%TD*%
D12*
%TO.C,C7*%
X197074633Y-52401584D03*
X197074633Y-54476584D03*
%TD*%
D13*
%TO.C,C8*%
X187185000Y-80500000D03*
X185110000Y-80500000D03*
%TD*%
%TO.C,C9*%
X217112133Y-47439084D03*
X215037133Y-47439084D03*
%TD*%
D11*
%TO.C,C10*%
X219074633Y-69514084D03*
X219074633Y-67439084D03*
%TD*%
%TO.C,C14*%
X229574633Y-82439084D03*
X229574633Y-80364084D03*
%TD*%
D13*
%TO.C,C15*%
X173647500Y-66310000D03*
X171572500Y-66310000D03*
%TD*%
D12*
%TO.C,C16*%
X215500000Y-62000000D03*
X215500000Y-64075000D03*
%TD*%
%TO.C,C17*%
X157500000Y-61070000D03*
X157500000Y-63145000D03*
%TD*%
D13*
%TO.C,C18*%
X117537500Y-52570000D03*
X115462500Y-52570000D03*
%TD*%
D11*
%TO.C,C19*%
X125150000Y-73880000D03*
X125150000Y-71805000D03*
%TD*%
D12*
%TO.C,C20*%
X134150000Y-56342500D03*
X134150000Y-58417500D03*
%TD*%
D11*
%TO.C,C21*%
X136650000Y-73917500D03*
X136650000Y-71842500D03*
%TD*%
%TO.C,C22*%
X143500000Y-57645000D03*
X143500000Y-55570000D03*
%TD*%
D12*
%TO.C,C23*%
X157500000Y-55570000D03*
X157500000Y-57645000D03*
%TD*%
%TO.C,C24*%
X129150000Y-56342500D03*
X129150000Y-58417500D03*
%TD*%
%TO.C,C25*%
X129150000Y-71842500D03*
X129150000Y-73917500D03*
%TD*%
D13*
%TO.C,C26*%
X188925000Y-134000000D03*
X191000000Y-134000000D03*
%TD*%
D11*
%TO.C,C27*%
X199500000Y-91962500D03*
X199500000Y-94037500D03*
%TD*%
D14*
%TO.C,C28*%
X180265000Y-101650000D03*
X178190000Y-101650000D03*
%TD*%
D13*
%TO.C,C29*%
X193652500Y-110650000D03*
X195727500Y-110650000D03*
%TD*%
D14*
%TO.C,C30*%
X180227500Y-113150000D03*
X178152500Y-113150000D03*
%TD*%
%TO.C,C31*%
X196500000Y-120000000D03*
X194425000Y-120000000D03*
%TD*%
D13*
%TO.C,C32*%
X194425000Y-134000000D03*
X196500000Y-134000000D03*
%TD*%
%TO.C,C33*%
X193652500Y-105650000D03*
X195727500Y-105650000D03*
%TD*%
%TO.C,C34*%
X178152500Y-105650000D03*
X180227500Y-105650000D03*
%TD*%
D15*
%TO.C,R1*%
X219313416Y-125374633D03*
X221313416Y-125374633D03*
%TD*%
%TO.C,R2*%
X219313416Y-117374633D03*
X221313416Y-117374633D03*
%TD*%
D10*
%TO.C,R3*%
X94000000Y-104570000D03*
X92000000Y-104570000D03*
%TD*%
D15*
%TO.C,R4*%
X219313416Y-133374633D03*
X221313416Y-133374633D03*
%TD*%
D10*
%TO.C,R5*%
X89500000Y-104570000D03*
X87500000Y-104570000D03*
%TD*%
%TO.C,R6*%
X137000000Y-101920000D03*
X135000000Y-101920000D03*
%TD*%
D15*
%TO.C,R7*%
X135000000Y-104420000D03*
X137000000Y-104420000D03*
%TD*%
D10*
%TO.C,R8*%
X139500000Y-98420000D03*
X137500000Y-98420000D03*
%TD*%
%TO.C,R9*%
X152000000Y-111920000D03*
X150000000Y-111920000D03*
%TD*%
D16*
%TO.C,R10*%
X154000000Y-106920000D03*
X154000000Y-108920000D03*
%TD*%
D17*
%TO.C,R11*%
X131120000Y-111080000D03*
X131120000Y-109080000D03*
%TD*%
D15*
%TO.C,R13*%
X200574633Y-46939084D03*
X202574633Y-46939084D03*
%TD*%
D17*
%TO.C,R14*%
X197074633Y-48439084D03*
X197074633Y-46439084D03*
%TD*%
%TO.C,R15*%
X120770000Y-110840000D03*
X120770000Y-108840000D03*
%TD*%
%TO.C,R16*%
X127770000Y-110840000D03*
X127770000Y-108840000D03*
%TD*%
%TO.C,R17*%
X124270000Y-110840000D03*
X124270000Y-108840000D03*
%TD*%
D10*
%TO.C,R18*%
X213500000Y-80537500D03*
X211500000Y-80537500D03*
%TD*%
%TO.C,R19*%
X217500000Y-73037500D03*
X215500000Y-73037500D03*
%TD*%
%TO.C,R20*%
X217500000Y-76537500D03*
X215500000Y-76537500D03*
%TD*%
D15*
%TO.C,R21*%
X215500000Y-80037500D03*
X217500000Y-80037500D03*
%TD*%
%TO.C,R22*%
X219500000Y-80037500D03*
X221500000Y-80037500D03*
%TD*%
D16*
%TO.C,R23*%
X182190000Y-67310000D03*
X182190000Y-65310000D03*
%TD*%
%TO.C,R24*%
X185610000Y-65310000D03*
X185610000Y-67310000D03*
%TD*%
D17*
%TO.C,R25*%
X227574633Y-64439084D03*
X227574633Y-62439084D03*
%TD*%
D15*
%TO.C,R26*%
X143120000Y-122580000D03*
X145120000Y-122580000D03*
%TD*%
D17*
%TO.C,R27*%
X145120000Y-132580000D03*
X145120000Y-130580000D03*
%TD*%
D16*
%TO.C,R28*%
X145120000Y-125080000D03*
X145120000Y-127080000D03*
%TD*%
D10*
%TO.C,R29*%
X134620000Y-122080000D03*
X136620000Y-122080000D03*
%TD*%
D17*
%TO.C,R30*%
X148120000Y-130080000D03*
X148120000Y-128080000D03*
%TD*%
D16*
%TO.C,R31*%
X177190000Y-65310000D03*
X177190000Y-67310000D03*
%TD*%
D10*
%TO.C,R32*%
X192110000Y-67310000D03*
X190110000Y-67310000D03*
%TD*%
D15*
%TO.C,R33*%
X200000000Y-72939084D03*
X202000000Y-72939084D03*
%TD*%
D17*
%TO.C,R35*%
X88500000Y-84570000D03*
X88500000Y-82570000D03*
%TD*%
D10*
%TO.C,R36*%
X87500000Y-69070000D03*
X89500000Y-69070000D03*
%TD*%
%TO.C,R37*%
X92000000Y-69070000D03*
X94000000Y-69070000D03*
%TD*%
D15*
%TO.C,R38*%
X205500000Y-80537500D03*
X203500000Y-80537500D03*
%TD*%
D10*
%TO.C,R39*%
X87500000Y-121570000D03*
X89500000Y-121570000D03*
%TD*%
D15*
%TO.C,R40*%
X92000000Y-121570000D03*
X94000000Y-121570000D03*
%TD*%
D17*
%TO.C,R41*%
X199074633Y-64439084D03*
X199074633Y-62439084D03*
%TD*%
D16*
%TO.C,R42*%
X202000000Y-62537500D03*
X202000000Y-64537500D03*
%TD*%
%TO.C,R43*%
X92500000Y-40570000D03*
X92500000Y-42570000D03*
%TD*%
%TO.C,R44*%
X140650000Y-60880000D03*
X140650000Y-62880000D03*
%TD*%
D17*
%TO.C,R45*%
X121650000Y-58380000D03*
X121650000Y-56380000D03*
%TD*%
D16*
%TO.C,R46*%
X121650000Y-71880000D03*
X121650000Y-73880000D03*
%TD*%
%TO.C,R47*%
X118150000Y-56380000D03*
X118150000Y-58380000D03*
%TD*%
D15*
%TO.C,R48*%
X116150000Y-75380000D03*
X118150000Y-75380000D03*
%TD*%
D17*
%TO.C,R49*%
X125150000Y-58380000D03*
X125150000Y-56380000D03*
%TD*%
D15*
%TO.C,R50*%
X116150000Y-71880000D03*
X118150000Y-71880000D03*
%TD*%
D16*
%TO.C,R51*%
X161500000Y-60570000D03*
X161500000Y-62570000D03*
%TD*%
%TO.C,R52*%
X127650000Y-51380000D03*
X127650000Y-53380000D03*
%TD*%
D10*
%TO.C,R53*%
X125650000Y-77380000D03*
X123650000Y-77380000D03*
%TD*%
D16*
%TO.C,R54*%
X161500000Y-54070000D03*
X161500000Y-56070000D03*
%TD*%
D17*
%TO.C,R55*%
X137150000Y-62880000D03*
X137150000Y-60880000D03*
%TD*%
D16*
%TO.C,R56*%
X138650000Y-65380000D03*
X138650000Y-67380000D03*
%TD*%
D17*
%TO.C,R57*%
X138500000Y-57570000D03*
X138500000Y-55570000D03*
%TD*%
D15*
%TO.C,R58*%
X134650000Y-77380000D03*
X136650000Y-77380000D03*
%TD*%
D16*
%TO.C,R59*%
X143500000Y-67570000D03*
X143500000Y-69570000D03*
%TD*%
D10*
%TO.C,R60*%
X113650000Y-68380000D03*
X111650000Y-68380000D03*
%TD*%
D15*
%TO.C,R61*%
X132150000Y-53880000D03*
X134150000Y-53880000D03*
%TD*%
D16*
%TO.C,R62*%
X134150000Y-71880000D03*
X134150000Y-73880000D03*
%TD*%
D10*
%TO.C,R63*%
X134150000Y-50380000D03*
X132150000Y-50380000D03*
%TD*%
%TO.C,R64*%
X189190000Y-117150000D03*
X191190000Y-117150000D03*
%TD*%
D15*
%TO.C,R65*%
X195690000Y-98150000D03*
X193690000Y-98150000D03*
%TD*%
D10*
%TO.C,R66*%
X178190000Y-98150000D03*
X180190000Y-98150000D03*
%TD*%
%TO.C,R67*%
X193690000Y-94650000D03*
X195690000Y-94650000D03*
%TD*%
D16*
%TO.C,R68*%
X176690000Y-94650000D03*
X176690000Y-92650000D03*
%TD*%
D15*
%TO.C,R69*%
X195690000Y-101650000D03*
X193690000Y-101650000D03*
%TD*%
D16*
%TO.C,R70*%
X180190000Y-94650000D03*
X180190000Y-92650000D03*
%TD*%
D10*
%TO.C,R71*%
X189500000Y-138000000D03*
X191500000Y-138000000D03*
%TD*%
%TO.C,R72*%
X198690000Y-104150000D03*
X200690000Y-104150000D03*
%TD*%
D17*
%TO.C,R73*%
X174690000Y-100150000D03*
X174690000Y-102150000D03*
%TD*%
D10*
%TO.C,R74*%
X196000000Y-138000000D03*
X198000000Y-138000000D03*
%TD*%
D15*
%TO.C,R75*%
X191190000Y-113650000D03*
X189190000Y-113650000D03*
%TD*%
D10*
%TO.C,R76*%
X184690000Y-115150000D03*
X186690000Y-115150000D03*
%TD*%
D15*
%TO.C,R77*%
X196500000Y-115000000D03*
X194500000Y-115000000D03*
%TD*%
D16*
%TO.C,R78*%
X174690000Y-113150000D03*
X174690000Y-111150000D03*
%TD*%
D10*
%TO.C,R79*%
X182500000Y-120000000D03*
X184500000Y-120000000D03*
%TD*%
D17*
%TO.C,R80*%
X183690000Y-88150000D03*
X183690000Y-90150000D03*
%TD*%
D16*
%TO.C,R81*%
X198190000Y-110650000D03*
X198190000Y-108650000D03*
%TD*%
D10*
%TO.C,R82*%
X178190000Y-110650000D03*
X180190000Y-110650000D03*
%TD*%
D17*
%TO.C,R83*%
X201690000Y-108650000D03*
X201690000Y-110650000D03*
%TD*%
D18*
%TO.C,TP1*%
X118120000Y-122080000D03*
%TD*%
D19*
%TO.C,TP2*%
X207074633Y-46439084D03*
%TD*%
D18*
%TO.C,TP3*%
X118120000Y-115080000D03*
%TD*%
D19*
%TO.C,TP4*%
X179000000Y-81000000D03*
%TD*%
%TO.C,TP5*%
X220000000Y-56037500D03*
%TD*%
D18*
%TO.C,TP6*%
X129620000Y-121080000D03*
%TD*%
%TO.C,TP7*%
X224500000Y-80037500D03*
%TD*%
D19*
%TO.C,TP8*%
X225500000Y-54537500D03*
%TD*%
D18*
%TO.C,TP9*%
X87500000Y-134070000D03*
%TD*%
%TO.C,TP12*%
X113000000Y-57070000D03*
%TD*%
%TO.C,TP13*%
X127000000Y-88070000D03*
%TD*%
%TO.C,TP14*%
X165500000Y-62070000D03*
%TD*%
%TO.C,TP15*%
X133500000Y-46570000D03*
%TD*%
%TO.C,TP16*%
X137000000Y-82570000D03*
%TD*%
%TO.C,TP17*%
X146500000Y-44570000D03*
%TD*%
D19*
%TO.C,TP18*%
X195000000Y-89500000D03*
%TD*%
%TO.C,TP19*%
X164000000Y-103500000D03*
%TD*%
%TO.C,TP20*%
X190000000Y-142000000D03*
%TD*%
%TO.C,TP21*%
X205500000Y-110000000D03*
%TD*%
%TO.C,TP22*%
X169500000Y-113500000D03*
%TD*%
%TO.C,TP23*%
X207500000Y-123000000D03*
%TD*%
M02*
